<?xml version="1.0" standalone="no"?>
<!DOCTYPE svg PUBLIC "-//W3C//DTD SVG 20010904//EN"
 "http://www.w3.org/TR/2001/REC-SVG-20010904/DTD/svg10.dtd">
<svg version="1.0" xmlns="http://www.w3.org/2000/svg"
 width="650.000000pt" height="650.000000pt" viewBox="0 0 650.000000 650.000000"
 preserveAspectRatio="xMidYMid meet">
<metadata>
Created by potrace 1.14, written by Peter Selinger 2001-2017
</metadata>
<g transform="translate(0.000000,650.000000) scale(0.100000,-0.100000)"
fill="#000000" stroke="none">
<path d="M2469 5660 c-7 -5 -16 -7 -20 -4 -4 2 -21 -11 -39 -29 -45 -45 -78
-125 -94 -227 -3 -19 -8 -46 -11 -60 -11 -48 -19 -176 -19 -285 1 -157 15
-275 50 -417 3 -13 7 -33 10 -45 8 -40 76 -227 96 -268 12 -22 20 -41 19 -43
-6 -8 117 -217 177 -302 79 -111 246 -284 352 -364 41 -31 77 -56 81 -56 3 0
2 24 -2 53 -7 49 -3 335 5 402 3 17 7 57 10 90 3 33 8 83 11 110 16 147 22
374 10 450 -32 213 -76 337 -183 520 -58 100 -295 401 -344 437 -42 32 -91 48
-109 38z"/>
<path d="M4240 5466 c-50 -19 -130 -68 -218 -133 -74 -54 -280 -252 -315 -303
-9 -14 -33 -45 -52 -70 -178 -232 -323 -605 -351 -911 -17 -176 0 -478 27
-495 5 -3 9 -1 9 5 0 22 224 236 395 376 173 142 354 313 405 383 14 19 30 39
35 45 20 22 83 132 110 192 46 100 87 233 101 330 3 17 9 52 14 79 6 26 13 76
16 110 3 33 7 72 10 86 2 14 7 61 10 106 10 142 -23 204 -113 210 -26 2 -64
-2 -83 -10z"/>
<path d="M1030 4486 c-52 -19 -83 -69 -77 -126 6 -56 28 -104 91 -200 246
-373 667 -660 1120 -761 98 -22 118 -25 241 -38 131 -13 407 -1 446 20 9 4 18
7 20 6 2 -2 -51 51 -117 118 -67 66 -175 185 -240 265 -218 268 -296 350 -432
453 -68 51 -193 120 -277 154 -77 30 -281 79 -370 88 -16 2 -48 6 -70 9 -22 3
-58 8 -80 11 -91 12 -221 13 -255 1z"/>
<path d="M4835 4140 c-76 -8 -141 -18 -165 -25 -8 -2 -32 -6 -54 -10 -21 -3
-41 -7 -45 -10 -4 -2 -18 -6 -32 -9 -101 -19 -469 -176 -469 -199 0 -6 -3 -8
-6 -5 -9 9 -200 -123 -217 -149 -4 -7 -12 -13 -18 -13 -26 0 -232 -219 -306
-325 l-21 -30 182 0 c158 0 237 -4 386 -21 139 -15 216 -19 365 -19 94 0 190
3 215 7 25 4 61 10 80 14 120 20 307 104 462 208 112 75 335 255 369 297 66
83 45 165 -56 217 -35 17 -165 49 -275 67 -58 10 -320 13 -395 5z"/>
<path d="M1730 3160 c-127 -22 -205 -44 -297 -84 -136 -59 -334 -183 -418
-263 -8 -7 -18 -13 -23 -13 -6 0 -12 -4 -14 -8 -1 -4 -32 -32 -68 -61 -80 -66
-105 -93 -126 -133 -18 -35 -14 -83 11 -121 17 -27 122 -83 170 -90 17 -3 41
-8 55 -11 93 -22 177 -29 340 -30 167 -1 323 16 435 48 6 2 24 6 40 10 103 26
277 92 360 137 28 15 66 35 85 45 50 27 211 135 236 159 12 11 36 31 54 44 26
20 144 138 185 185 25 29 83 103 98 126 l16 25 -182 0 c-188 1 -264 6 -472 30
-81 10 -436 13 -485 5z"/>
<path d="M3717 3134 c-1 -1 -33 -4 -72 -8 -73 -6 -121 -13 -143 -21 -8 -3 9
-24 45 -53 74 -63 199 -195 295 -315 13 -16 30 -36 38 -46 8 -9 33 -39 55 -66
294 -365 533 -519 905 -584 36 -6 79 -13 95 -16 17 -3 53 -8 80 -11 28 -3 61
-7 75 -9 73 -13 210 -17 242 -6 60 20 83 54 83 120 0 46 -7 71 -35 124 -19 37
-38 67 -42 67 -5 0 -8 5 -8 11 0 45 -277 341 -410 440 -144 107 -340 212 -490
264 -3 1 -12 5 -20 8 -20 8 -186 56 -214 61 -34 6 -100 18 -119 22 -66 12
-350 26 -360 18z"/>
<path d="M3010 2903 c-60 -77 -203 -212 -335 -318 -27 -22 -55 -44 -61 -50 -6
-5 -28 -23 -49 -40 -72 -57 -98 -80 -199 -180 -136 -133 -222 -250 -276 -372
-12 -26 -25 -57 -30 -68 -10 -22 -40 -116 -41 -127 0 -4 -5 -22 -10 -40 -16
-54 -50 -233 -51 -268 0 -8 -4 -46 -10 -85 -5 -38 -11 -108 -13 -154 -4 -96 8
-136 51 -170 24 -18 38 -22 84 -18 30 2 75 14 100 27 42 21 189 116 200 129 3
3 34 31 70 61 36 30 94 86 130 124 67 71 190 225 190 239 0 4 8 16 18 27 9 10
28 40 42 67 14 26 27 50 30 53 14 13 104 221 131 303 35 105 71 257 73 304 1
18 3 33 6 33 7 0 13 114 14 245 0 94 -7 188 -19 270 -2 11 -4 23 -4 28 -2 15
-20 6 -41 -20z"/>
<path d="M3305 2737 c0 -167 -3 -227 -21 -392 -14 -136 -18 -201 -18 -340 -1
-203 17 -342 58 -439 8 -19 12 -37 8 -40 -3 -3 0 -6 6 -6 7 0 12 -7 12 -14 0
-20 110 -229 130 -246 3 -3 22 -30 42 -60 32 -48 113 -154 211 -274 116 -141
235 -125 292 39 9 28 19 59 21 70 2 11 6 31 9 45 2 14 7 36 10 50 3 14 8 43
11 65 10 59 10 381 1 445 -14 93 -17 114 -24 135 -3 11 -7 29 -9 40 -4 35 -15
78 -25 97 -5 10 -7 18 -4 18 3 0 -2 17 -10 38 -9 20 -16 37 -15 37 8 0 -52
149 -92 230 -94 188 -190 326 -326 467 -71 74 -213 196 -255 220 -9 5 -12 -42
-12 -185z"/>
</g>
</svg>
