<svg width="116" height="114" viewBox="0 0 116 114" fill="none" xmlns="http://www.w3.org/2000/svg">
<path d="M100.306 42.8595C99.6525 41.9043 98.9385 41.001 98.1694 40.1563L66.4402 5.25083C65.6087 4.33472 64.6211 3.60794 63.5341 3.11207C62.447 2.6162 61.2818 2.36096 60.105 2.36096C58.9282 2.36096 57.7629 2.6162 56.6759 3.11207C55.5888 3.60794 54.6013 4.33472 53.7698 5.25083L4.6269 59.3132C3.79415 60.228 3.13351 61.3144 2.68276 62.5102C2.23201 63.7061 2 64.988 2 66.2826C2 67.5772 2.23201 68.8591 2.68276 70.055C3.13351 71.2508 3.79415 72.3372 4.6269 73.252L25.5233 96.2167" stroke="#868686" stroke-width="4" stroke-linecap="round" stroke-linejoin="round"/>
<path d="M104.174 42.8595H34.3906C29.4698 42.8595 25.4807 47.2479 25.4807 52.6613V101.223C25.4807 106.637 29.4698 111.025 34.3906 111.025H104.174C109.094 111.025 113.083 106.637 113.083 101.223V52.6613C113.083 47.2479 109.094 42.8595 104.174 42.8595Z" stroke="#868686" stroke-width="4" stroke-linecap="round" stroke-linejoin="round"/>
<path d="M25.4807 61.6638H113.083" stroke="#868686" stroke-width="4" stroke-linecap="round" stroke-linejoin="round"/>
<path d="M25.4807 71.066H113.083" stroke="#868686" stroke-width="4" stroke-linecap="round" stroke-linejoin="round"/>
<path d="M38.3007 85.1692H55.3939" stroke="#868686" stroke-width="4" stroke-linecap="round" stroke-linejoin="round"/>
<path d="M38.3007 94.5714H48.9839" stroke="#868686" stroke-width="4" stroke-linecap="round" stroke-linejoin="round"/>
<path d="M63.9404 85.1692H74.6237" stroke="#868686" stroke-width="4" stroke-linecap="round" stroke-linejoin="round"/>
</svg>
