<svg width="27" height="27" viewBox="0 0 27 27" fill="none" xmlns="http://www.w3.org/2000/svg">
<g id="&#240;&#159;&#166;&#134; icon &#34;cart&#34;">
<path id="Vector" d="M22.8952 26C23.924 26 24.7581 25.1659 24.7581 24.1371C24.7581 23.1082 23.924 22.2741 22.8952 22.2741C21.8663 22.2741 21.0322 23.1082 21.0322 24.1371C21.0322 25.1659 21.8663 26 22.8952 26Z" fill="#868686" stroke="#868686" stroke-width="2" stroke-linecap="round" stroke-linejoin="round"/>
<path id="Vector_2" d="M10.4755 26C11.5044 26 12.3385 25.1659 12.3385 24.1371C12.3385 23.1082 11.5044 22.2741 10.4755 22.2741C9.44667 22.2741 8.61261 23.1082 8.61261 24.1371C8.61261 25.1659 9.44667 26 10.4755 26Z" fill="#868686" stroke="#868686" stroke-width="2" stroke-linecap="round" stroke-linejoin="round"/>
<path id="Vector_3" d="M4.88676 3.64477H26L23.5161 17.3063H7.37067L4.88676 3.64477ZM4.88676 3.64477C4.67976 2.8168 3.6448 1.16086 1.16089 1.16086" stroke="#868686" stroke-width="2" stroke-linecap="round" stroke-linejoin="round"/>
<path id="Vector_4" d="M23.5161 17.3063H7.37067H5.17336C2.95732 17.3063 1.78186 18.2765 1.78186 19.7902C1.78186 21.3039 2.95732 22.2741 5.17336 22.2741H22.8951" stroke="#868686" stroke-width="2" stroke-linecap="round" stroke-linejoin="round"/>
</g>
</svg>
