<svg width="20" height="20" viewBox="0 0 20 20" fill="none" xmlns="http://www.w3.org/2000/svg">
<path id="clip" d="M10.1148 13.4521L6.23478 17.3321C5.76502 17.7855 5.13764 18.0389 4.48478 18.0389C3.83192 18.0389 3.20454 17.7855 2.73478 17.3321C2.50439 17.1026 2.32157 16.8299 2.19683 16.5296C2.07209 16.2293 2.00788 15.9073 2.00788 15.5821C2.00788 15.2569 2.07209 14.9349 2.19683 14.6346C2.32157 14.3343 2.50439 14.0616 2.73478 13.8321L6.61478 9.95211C6.80308 9.7638 6.90887 9.50841 6.90887 9.24211C6.90887 8.9758 6.80308 8.72041 6.61478 8.53211C6.42648 8.3438 6.17108 8.23801 5.90478 8.23801C5.63848 8.23801 5.38308 8.3438 5.19478 8.53211L1.31478 12.4221C0.533137 13.2729 0.110401 14.3928 0.134855 15.5479C0.159309 16.7029 0.629062 17.8039 1.44601 18.6209C2.26296 19.4378 3.36394 19.9076 4.51903 19.932C5.67411 19.9565 6.79399 19.5338 7.64478 18.7521L11.5348 14.8721C11.7231 14.6838 11.8289 14.4284 11.8289 14.1621C11.8289 13.8958 11.7231 13.6404 11.5348 13.4521C11.3465 13.2638 11.0911 13.158 10.8248 13.158C10.5585 13.158 10.3031 13.2638 10.1148 13.4521ZM18.6948 1.37211C17.8536 0.536113 16.7158 0.0668945 15.5298 0.0668945C14.3438 0.0668945 13.206 0.536113 12.3648 1.37211L8.47478 5.25211C8.38154 5.34535 8.30758 5.45604 8.25712 5.57786C8.20666 5.69968 8.18069 5.83025 8.18069 5.96211C8.18069 6.09397 8.20666 6.22453 8.25712 6.34636C8.30758 6.46818 8.38154 6.57887 8.47478 6.67211C8.56802 6.76534 8.67871 6.83931 8.80053 6.88977C8.92235 6.94023 9.05292 6.9662 9.18478 6.9662C9.31664 6.9662 9.44721 6.94023 9.56903 6.88977C9.69085 6.83931 9.80154 6.76534 9.89478 6.67211L13.7748 2.79211C14.2445 2.33873 14.8719 2.08536 15.5248 2.08536C16.1776 2.08536 16.805 2.33873 17.2748 2.79211C17.5052 3.02159 17.688 3.29432 17.8127 3.59463C17.9375 3.89493 18.0017 4.21692 18.0017 4.54211C18.0017 4.86729 17.9375 5.18928 17.8127 5.48959C17.688 5.7899 17.5052 6.06262 17.2748 6.29211L13.3948 10.1721C13.3011 10.2651 13.2267 10.3757 13.1759 10.4975C13.1251 10.6194 13.099 10.7501 13.099 10.8821C13.099 11.0141 13.1251 11.1448 13.1759 11.2667C13.2267 11.3885 13.3011 11.4991 13.3948 11.5921C13.4877 11.6858 13.5983 11.7602 13.7202 11.811C13.8421 11.8618 13.9728 11.8879 14.1048 11.8879C14.2368 11.8879 14.3675 11.8618 14.4894 11.811C14.6112 11.7602 14.7218 11.6858 14.8148 11.5921L18.6948 7.70211C19.5308 6.86089 20 5.72308 20 4.53711C20 3.35113 19.5308 2.21333 18.6948 1.37211ZM6.83478 13.2321C6.92822 13.3248 7.03904 13.3981 7.16087 13.4479C7.28271 13.4976 7.41317 13.5229 7.54478 13.5221C7.67639 13.5229 7.80685 13.4976 7.92869 13.4479C8.05052 13.3981 8.16134 13.3248 8.25478 13.2321L13.1748 8.31211C13.3631 8.1238 13.4689 7.86841 13.4689 7.60211C13.4689 7.3358 13.3631 7.08041 13.1748 6.89211C12.9865 6.7038 12.7311 6.59801 12.4648 6.59801C12.1985 6.59801 11.9431 6.7038 11.7548 6.89211L6.83478 11.8121C6.74105 11.9051 6.66666 12.0157 6.61589 12.1375C6.56512 12.2594 6.53898 12.3901 6.53898 12.5221C6.53898 12.6541 6.56512 12.7848 6.61589 12.9067C6.66666 13.0285 6.74105 13.1391 6.83478 13.2321Z" fill="#868686"/>
</svg>
