<svg width="168" height="168" viewBox="0 0 168 168" fill="none" xmlns="http://www.w3.org/2000/svg">
<path id="Union" fill-rule="evenodd" clip-rule="evenodd" d="M156.8 83.9927C156.8 64.6849 149.13 46.1679 135.477 32.5153C121.825 18.8626 103.308 11.1927 84 11.1927C64.6922 11.1927 46.1753 18.8626 32.5226 32.5153C18.87 46.1679 11.2 64.6849 11.2 83.9927C16.0182 80.3789 21.9067 78.3928 28 78.3928H34.888C37.5322 78.4369 40.0531 79.5183 41.9073 81.4039C43.7615 83.2895 44.8004 85.8283 44.8 88.4728V135.513C44.8004 138.157 43.7615 140.696 41.9073 142.582C40.0531 144.467 37.5322 145.549 34.888 145.593H28C24.323 145.593 20.682 144.869 17.2849 143.461C13.8877 142.054 10.8011 139.992 8.20101 137.392C2.94999 132.141 0 125.019 0 117.593V111.993V106.393V83.9927C0 61.7145 8.84997 40.3488 24.603 24.5957C40.3561 8.84265 61.7218 -0.00732422 84 -0.00732422C106.278 -0.00732422 127.644 8.84265 143.397 24.5957C159.15 40.3488 168 61.7145 168 83.9927V106.393V111.993V117.593C168 125.019 165.05 132.141 159.799 137.392C155.888 141.303 150.939 143.937 145.6 145.027V151.193C145.61 153.94 144.947 156.647 143.668 159.078C142.389 161.509 140.534 163.589 138.264 165.137C135.274 167.094 131.757 168.091 128.184 167.993H89.6C88.1148 167.993 86.6904 167.403 85.6402 166.352C84.59 165.302 84 163.878 84 162.393C84 160.907 84.59 159.483 85.6402 158.433C86.6904 157.383 88.1148 156.793 89.6 156.793H128.8C130.285 156.793 131.71 156.203 132.76 155.152C133.81 154.102 134.4 152.678 134.4 151.193V145.593H133.28C130.607 145.593 128.043 144.531 126.152 142.64C124.262 140.75 123.2 138.186 123.2 135.513V88.4728C123.2 85.7994 124.262 83.2355 126.152 81.3452C128.043 79.4548 130.607 78.3928 133.28 78.3928H140C146.093 78.3928 151.982 80.3789 156.8 83.9927Z" fill="#E9E9E9"/>
</svg>
