<svg width="30" height="31" viewBox="0 0 30 31" fill="none" xmlns="http://www.w3.org/2000/svg">
<g id="Layer 2">
<path id="Vector" d="M30 20.5798H28V15.5798C28 12.132 26.6304 8.82542 24.1924 6.38745C21.7544 3.94947 18.4478 2.57983 15 2.57983C11.5522 2.57983 8.24558 3.94947 5.80761 6.38745C3.36964 8.82542 2 12.132 2 15.5798V20.5798H0V15.5798C5.92805e-08 11.6016 1.58035 7.78628 4.3934 4.97323C7.20644 2.16019 11.0218 0.579834 15 0.579834C18.9782 0.579834 22.7936 2.16019 25.6066 4.97323C28.4196 7.78628 30 11.6016 30 15.5798V20.5798Z" fill="#868686"/>
<path id="Vector_2" d="M6.23 26.5798H5C4.34339 26.5798 3.69321 26.4505 3.08658 26.1992C2.47995 25.948 1.92876 25.5797 1.46447 25.1154C0.526784 24.1777 0 22.9059 0 21.5798V19.5798C0 18.2538 0.526784 16.982 1.46447 16.0443C2.40215 15.1066 3.67392 14.5798 5 14.5798H6.23C6.70217 14.5877 7.15234 14.7808 7.48344 15.1175C7.81455 15.4542 8.00007 15.9076 8 16.3798V24.7798C8.00007 25.2521 7.81455 25.7054 7.48344 26.0421C7.15234 26.3789 6.70217 26.572 6.23 26.5798ZM5 16.5798C4.20435 16.5798 3.44129 16.8959 2.87868 17.4585C2.31607 18.0211 2 18.7842 2 19.5798V21.5798C2 22.3755 2.31607 23.1385 2.87868 23.7012C3.44129 24.2638 4.20435 24.5798 5 24.5798H6V16.5798H5ZM25 26.5798H23.8C23.3226 26.5798 22.8648 26.3902 22.5272 26.0526C22.1896 25.7151 22 25.2572 22 24.7798V16.3798C22 15.9024 22.1896 15.4446 22.5272 15.107C22.8648 14.7695 23.3226 14.5798 23.8 14.5798H25C26.3261 14.5798 27.5979 15.1066 28.5355 16.0443C29.4732 16.982 30 18.2538 30 19.5798V21.5798C30 22.9059 29.4732 24.1777 28.5355 25.1154C27.5979 26.0531 26.3261 26.5798 25 26.5798ZM24 24.5798H25C25.7956 24.5798 26.5587 24.2638 27.1213 23.7012C27.6839 23.1385 28 22.3755 28 21.5798V19.5798C28 18.7842 27.6839 18.0211 27.1213 17.4585C26.5587 16.8959 25.7956 16.5798 25 16.5798H24V24.5798Z" fill="#868686"/>
<path id="Vector_3" d="M5 15.5798H6.23C6.44217 15.5798 6.64566 15.6641 6.79569 15.8141C6.94571 15.9642 7.03 16.1677 7.03 16.3798V24.7798C7.03 24.992 6.94571 25.1955 6.79569 25.3455C6.64566 25.4955 6.44217 25.5798 6.23 25.5798H5C3.93913 25.5798 2.92172 25.1584 2.17157 24.4083C1.42143 23.6581 1 22.6407 1 21.5798V19.5798C1 18.519 1.42143 17.5016 2.17157 16.7514C2.92172 16.0013 3.93913 15.5798 5 15.5798Z" fill="#868686"/>
<path id="Vector_4" d="M25 25.5798H23.8C23.5878 25.5798 23.3843 25.4955 23.2343 25.3455C23.0843 25.1955 23 24.992 23 24.7798V16.3798C23 16.1677 23.0843 15.9642 23.2343 15.8141C23.3843 15.6641 23.5878 15.5798 23.8 15.5798H25C26.0609 15.5798 27.0783 16.0013 27.8284 16.7514C28.5786 17.5016 29 18.519 29 19.5798V21.5798C29 22.6407 28.5786 23.6581 27.8284 24.4083C27.0783 25.1584 26.0609 25.5798 25 25.5798Z" fill="#868686"/>
<path id="Vector_5" d="M22.89 30.5798H16C15.7348 30.5798 15.4804 30.4745 15.2929 30.2869C15.1054 30.0994 15 29.8451 15 29.5798C15 29.3146 15.1054 29.0603 15.2929 28.8727C15.4804 28.6852 15.7348 28.5798 16 28.5798H23C23.2652 28.5798 23.5196 28.4745 23.7071 28.2869C23.8946 28.0994 24 27.8451 24 27.5798V25.5798H26V27.5798C26.0018 28.0703 25.8834 28.5538 25.655 28.9879C25.4266 29.422 25.0953 29.7935 24.69 30.0698C24.156 30.4194 23.528 30.5973 22.89 30.5798Z" fill="#868686"/>
</g>
</svg>
