<svg width="282" height="369" viewBox="0 0 282 369" fill="none" xmlns="http://www.w3.org/2000/svg">
<path d="M274.69 325.738L207.481 258.522C217.958 241.323 223.485 221.566 223.452 201.426C223.452 140.649 170.79 88 110.018 88C95.57 87.9977 81.2626 90.8421 67.9135 96.3707C54.5643 101.899 42.4351 110.004 32.2185 120.222C22.0018 130.439 13.898 142.57 8.3699 155.92C2.84178 169.27 -0.0023348 183.579 1.43812e-06 198.029C1.43812e-06 258.789 52.6616 311.455 113.415 311.455C132.889 311.473 152.015 306.29 168.816 296.443L236.381 364.051C239.559 367.22 243.863 369 248.351 369C252.838 369 257.143 367.22 260.32 364.051L277.091 347.278C283.69 340.679 281.289 332.337 274.69 325.738ZM33.8628 198.029C33.8605 188.026 35.8285 178.12 39.6547 168.877C43.4808 159.635 49.09 151.236 56.162 144.162C63.2339 137.088 71.63 131.476 80.8708 127.647C90.1116 123.819 100.016 121.848 110.018 121.848C152.098 121.848 189.589 159.325 189.589 201.426C189.584 221.629 181.557 241.003 167.273 255.289C152.989 269.575 133.616 277.602 113.415 277.607C71.3359 277.589 33.8628 240.095 33.8628 198.029Z" fill="#FFDF5A" fill-opacity="0.2"/>
<path d="M223.178 86.0946C222.644 88.0868 222.92 90.2083 223.944 91.9925C224.968 93.7767 226.657 95.0774 228.639 95.6085C230.621 96.1396 232.734 95.8575 234.513 94.8244C236.292 93.7913 237.591 92.0917 238.125 90.0996C238.389 89.1132 238.457 88.0846 238.326 87.0727C238.195 86.0607 237.866 85.0852 237.359 84.2017C236.852 83.3183 236.176 82.5443 235.371 81.9238C234.565 81.3034 233.645 80.8487 232.664 80.5858C231.683 80.3228 230.659 80.2567 229.651 80.3912C228.643 80.5257 227.671 80.8583 226.79 81.3698C225.909 81.8814 225.137 82.5619 224.517 83.3726C223.897 84.1833 223.442 85.1082 223.178 86.0946ZM251.418 63.2722C263.49 60.2698 271.091 53.2632 273.989 42.4483C278.966 23.8741 266.619 11.6474 252.173 7.77661C238.104 4.0069 220.397 10.2752 215.293 29.3235C214.775 31.2576 215.042 33.3173 216.037 35.0495C217.031 36.7818 218.67 38.0446 220.595 38.5602C222.519 39.0758 224.571 38.802 226.298 37.799C228.025 36.796 229.286 35.1459 229.805 33.2118C232.519 23.0824 241.278 20.4896 248.265 22.3618C253.685 23.8141 262.348 27.8472 259.478 38.56C258.46 42.3594 256.278 46.5269 247.845 48.6287C242.116 50.0404 231.765 54.9188 229.285 64.1731C228.767 66.1072 229.034 68.167 230.029 69.8992C231.023 71.6314 232.662 72.8942 234.587 73.4098C236.511 73.9255 238.562 73.6516 240.29 72.6486C242.017 71.6456 243.278 69.9955 243.796 68.0614C244.16 66.705 247.919 64.1402 251.418 63.2722Z" fill="#FFDF5A" fill-opacity="0.2"/>
</svg>
