<svg width="97" height="97" viewBox="0 0 97 97" fill="none" xmlns="http://www.w3.org/2000/svg">
<path d="M12.125 48.5C12.125 28.4107 28.4107 12.125 48.5 12.125C68.5895 12.125 84.875 28.4107 84.875 48.5C84.875 68.5895 68.5895 84.875 48.5 84.875C28.4107 84.875 12.125 68.5895 12.125 48.5Z" fill="#2A4157" fill-opacity="0.24"/>
<path d="M48.5002 56.5833C57.4288 56.5833 64.6668 49.3453 64.6668 40.4167C64.6668 31.4881 57.4288 24.25 48.5002 24.25C39.5716 24.25 32.3335 31.4881 32.3335 40.4167C32.3335 49.3453 39.5716 56.5833 48.5002 56.5833Z" fill="#949494"/>
<path fill-rule="evenodd" clip-rule="evenodd" d="M73.6429 73.7451C73.8781 74.1347 73.8062 74.6334 73.4756 74.9454C66.96 81.1009 58.171 84.875 48.5001 84.875C38.8295 84.875 30.0404 81.1013 23.5249 74.9458C23.1943 74.6334 23.1225 74.1351 23.3576 73.7455C28.0629 65.9519 37.5559 60.625 48.5005 60.625C59.4445 60.625 68.9376 65.9515 73.6429 73.7451Z" fill="#949494"/>
</svg>
