<svg width="1157" height="151" viewBox="0 0 1157 151" fill="none" xmlns="http://www.w3.org/2000/svg">
<rect x="0.5" y="0.5" width="1156" height="150" fill="white" stroke="#D9D9D9"/>
<path d="M196.532 57.076H197.516V67.948H196.532V57.076ZM194.192 61.036H196.82V61.852H194.192V61.036ZM191.348 58.636H192.152V60.256C192.152 62.596 190.808 64.912 189.092 65.8L188.504 65.008C190.064 64.24 191.348 62.188 191.348 60.256V58.636ZM191.552 58.636H192.344V60.256C192.344 62.068 193.604 64.048 195.176 64.792L194.588 65.572C192.872 64.72 191.552 62.488 191.552 60.256V58.636ZM188.9 58.192H194.804V59.02H188.9V58.192ZM207.975 57.088H208.971V67.936H207.975V57.088ZM200.331 65.812L200.199 64.972C202.251 64.96 204.951 64.96 207.291 64.648L207.363 65.392C204.939 65.788 202.335 65.824 200.331 65.812ZM200.427 58.54H207.015V59.356H200.427V58.54ZM203.715 59.944C205.251 59.944 206.319 60.76 206.319 61.984C206.319 63.208 205.251 64.024 203.715 64.024C202.191 64.024 201.135 63.208 201.135 61.984C201.135 60.76 202.191 59.944 203.715 59.944ZM203.715 60.736C202.743 60.736 202.071 61.228 202.071 61.984C202.071 62.74 202.743 63.256 203.715 63.256C204.699 63.256 205.371 62.74 205.371 61.984C205.371 61.228 204.699 60.736 203.715 60.736ZM203.223 57.196H204.219V59.056H203.223V57.196ZM217.819 63.292H218.803V66.184H217.819V63.292ZM221.323 63.292H222.307V66.184H221.323V63.292ZM215.155 65.728H224.983V66.556H215.155V65.728ZM219.499 57.796H220.363V58.624C220.363 60.904 218.131 62.62 215.923 63.052L215.503 62.236C217.435 61.912 219.499 60.388 219.499 58.624V57.796ZM219.679 57.796H220.543V58.624C220.543 60.388 222.607 61.912 224.539 62.236L224.131 63.052C221.911 62.62 219.679 60.904 219.679 58.624V57.796ZM227.174 58.012H232.994V58.84H227.174V58.012ZM226.994 62.968L226.874 62.128C228.734 62.128 231.35 62.104 233.51 61.828L233.594 62.56C231.386 62.932 228.818 62.968 226.994 62.968ZM228.242 58.588H229.202V62.512H228.242V58.588ZM230.954 58.588H231.926V62.512H230.954V58.588ZM234.578 57.1H235.586V63.736H234.578V57.1ZM232.01 63.976C234.266 63.976 235.658 64.696 235.658 65.932C235.658 67.192 234.266 67.912 232.01 67.912C229.742 67.912 228.374 67.192 228.374 65.932C228.374 64.696 229.742 63.976 232.01 63.976ZM232.01 64.756C230.354 64.756 229.358 65.2 229.358 65.932C229.358 66.7 230.354 67.132 232.01 67.132C233.666 67.132 234.662 66.7 234.662 65.932C234.662 65.2 233.666 64.756 232.01 64.756ZM238.221 61.816H248.025V62.62H238.221V61.816ZM242.625 60.436H243.609V62.092H242.625V60.436ZM239.493 57.448H246.753V60.748H239.493V57.448ZM245.781 58.24H240.477V59.956H245.781V58.24ZM239.409 63.52H246.777V65.956H240.417V67.276H239.433V65.236H245.793V64.288H239.409V63.52ZM239.433 67.036H247.101V67.816H239.433V67.036ZM254.668 57.268C257.056 57.268 258.484 57.94 258.484 59.152C258.484 60.364 257.056 61.036 254.668 61.036C252.268 61.036 250.852 60.364 250.852 59.152C250.852 57.94 252.268 57.268 254.668 57.268ZM254.668 58.024C252.892 58.024 251.872 58.432 251.872 59.152C251.872 59.872 252.892 60.28 254.668 60.28C256.432 60.28 257.452 59.872 257.452 59.152C257.452 58.432 256.432 58.024 254.668 58.024ZM249.76 61.756H259.564V62.56H249.76V61.756ZM250.948 63.484H258.316V65.932H251.956V67.252H250.972V65.212H257.332V64.252H250.948V63.484ZM250.972 67.036H258.64V67.816H250.972V67.036ZM272.66 57.076H273.656V67.948H272.66V57.076ZM267.932 57.916C269.54 57.916 270.692 59.392 270.692 61.696C270.692 64.012 269.54 65.488 267.932 65.488C266.336 65.488 265.184 64.012 265.184 61.696C265.184 59.392 266.336 57.916 267.932 57.916ZM267.932 58.816C266.876 58.816 266.132 59.944 266.132 61.696C266.132 63.46 266.876 64.612 267.932 64.612C269 64.612 269.732 63.46 269.732 61.696C269.732 59.944 269 58.816 267.932 58.816ZM278.739 60.76H279.723V62.812H278.739V60.76ZM282.723 60.76H283.707V62.812H282.723V60.76ZM276.315 62.452H286.119V63.256H276.315V62.452ZM281.211 64.072C283.539 64.072 284.931 64.756 284.931 65.992C284.931 67.228 283.539 67.924 281.211 67.924C278.883 67.924 277.491 67.228 277.491 65.992C277.491 64.756 278.883 64.072 281.211 64.072ZM281.211 64.84C279.519 64.84 278.499 65.26 278.499 65.992C278.499 66.736 279.519 67.144 281.211 67.144C282.915 67.144 283.923 66.736 283.923 65.992C283.923 65.26 282.915 64.84 281.211 64.84ZM281.223 57.28C283.575 57.28 285.039 58.036 285.039 59.308C285.039 60.568 283.575 61.312 281.223 61.312C278.859 61.312 277.407 60.568 277.407 59.308C277.407 58.036 278.859 57.28 281.223 57.28ZM281.223 58.06C279.495 58.06 278.427 58.516 278.427 59.308C278.427 60.088 279.495 60.544 281.223 60.544C282.951 60.544 284.019 60.088 284.019 59.308C284.019 58.516 282.951 58.06 281.223 58.06ZM287.842 58.936H293.218V59.752H287.842V58.936ZM290.53 60.472C291.886 60.472 292.87 61.492 292.87 62.956C292.87 64.408 291.886 65.428 290.53 65.428C289.186 65.428 288.202 64.408 288.202 62.956C288.202 61.492 289.186 60.472 290.53 60.472ZM290.53 61.324C289.702 61.324 289.102 61.996 289.102 62.956C289.102 63.916 289.702 64.588 290.53 64.588C291.37 64.588 291.982 63.916 291.982 62.956C291.982 61.996 291.37 61.324 290.53 61.324ZM296.086 57.088H297.046V67.936H296.086V57.088ZM294.358 61.648H296.41V62.476H294.358V61.648ZM293.77 57.328H294.706V67.408H293.77V57.328ZM290.05 57.4H291.034V59.44H290.05V57.4ZM307.225 58.156H308.089V58.612C308.089 60.556 306.025 61.984 303.841 62.356L303.457 61.564C305.365 61.288 307.225 60.04 307.225 58.612V58.156ZM307.477 58.156H308.329V58.612C308.329 60.04 310.201 61.288 312.097 61.564L311.725 62.356C309.529 61.984 307.477 60.556 307.477 58.612V58.156ZM307.261 63.796H308.245V67.936H307.261V63.796ZM302.881 63.268H312.685V64.084H302.881V63.268ZM303.793 57.76H311.737V58.564H303.793V57.76ZM322.34 57.076H323.348V67.948H322.34V57.076ZM320 59.44H322.88V60.268H320V59.44ZM320 62.14H322.88V62.98H320V62.14ZM317.216 58.024H318.02V59.956C318.02 62.392 316.748 64.72 315.032 65.644L314.396 64.852C315.992 64.06 317.216 61.972 317.216 59.956V58.024ZM317.408 58.024H318.212V59.956C318.212 61.948 319.436 63.94 321.008 64.684L320.408 65.488C318.668 64.588 317.408 62.344 317.408 59.956V58.024ZM331.371 60.76H334.395V61.576H331.371V60.76ZM328.755 58.024H329.571V59.956C329.571 62.392 328.287 64.72 326.571 65.644L325.935 64.852C327.531 64.06 328.755 61.972 328.755 59.956V58.024ZM328.947 58.024H329.751V59.956C329.751 61.936 330.975 63.904 332.547 64.648L331.959 65.452C330.207 64.564 328.947 62.332 328.947 59.956V58.024ZM333.903 57.076H334.887V67.948H333.903V57.076ZM348.391 57.088H349.387V63.232H348.391V57.088ZM349.111 59.728H350.995V60.556H349.111V59.728ZM345.391 57.784H346.447C346.447 60.52 344.539 62.488 341.347 63.352L340.963 62.56C343.771 61.792 345.391 60.22 345.391 58.228V57.784ZM341.431 57.784H345.943V58.588H341.431V57.784ZM342.559 63.748H349.387V67.792H342.559V63.748ZM348.403 64.552H343.543V66.976H348.403V64.552ZM355.166 58.024H355.982V59.968C355.982 62.368 354.686 64.708 352.97 65.62L352.358 64.828C353.93 64.036 355.166 61.948 355.166 59.968V58.024ZM355.346 58.024H356.15V59.968C356.15 61.876 357.362 63.856 358.898 64.624L358.286 65.416C356.606 64.516 355.346 62.296 355.346 59.968V58.024ZM359.846 57.088H360.854V67.936H359.846V57.088ZM360.614 61.48H362.63V62.32H360.614V61.48ZM371.469 57.088H372.465V63.388H371.469V57.088ZM372.033 59.848H374.073V60.688H372.033V59.848ZM365.649 63.868H366.621V65.02H371.481V63.868H372.465V67.792H365.649V63.868ZM366.621 65.788V66.988H371.481V65.788H366.621ZM364.077 58.192H370.485V59.008H364.077V58.192ZM367.281 59.5C368.829 59.5 369.873 60.256 369.873 61.408C369.873 62.56 368.829 63.316 367.281 63.316C365.721 63.316 364.677 62.56 364.677 61.408C364.677 60.256 365.721 59.5 367.281 59.5ZM367.281 60.256C366.285 60.256 365.625 60.712 365.625 61.408C365.625 62.104 366.285 62.56 367.281 62.56C368.253 62.56 368.925 62.104 368.925 61.408C368.925 60.712 368.253 60.256 367.281 60.256ZM366.777 56.98H367.773V58.636H366.777V56.98ZM383.476 57.088H384.472V67.936H383.476V57.088ZM376.276 58.144H377.26V64.864H376.276V58.144ZM376.276 64.276H377.164C378.808 64.276 380.524 64.156 382.36 63.772L382.48 64.624C380.596 65.008 378.88 65.14 377.164 65.14H376.276V64.276ZM394.463 57.076H395.471V67.948H394.463V57.076ZM395.231 61.36H397.247V62.2H395.231V61.36ZM387.587 64.408H388.439C390.443 64.408 391.847 64.336 393.467 64.036L393.575 64.876C391.907 65.188 390.479 65.248 388.439 65.248H387.587V64.408ZM387.587 58.132H392.627V58.948H388.571V64.78H387.587V58.132ZM398.914 66.4258C398.914 66.2422 398.971 66.0879 399.084 65.9629C399.201 65.834 399.369 65.7695 399.588 65.7695C399.807 65.7695 399.973 65.834 400.086 65.9629C400.203 66.0879 400.262 66.2422 400.262 66.4258C400.262 66.6055 400.203 66.7578 400.086 66.8828C399.973 67.0078 399.807 67.0703 399.588 67.0703C399.369 67.0703 399.201 67.0078 399.084 66.8828C398.971 66.7578 398.914 66.6055 398.914 66.4258ZM408.393 64.5977H407.303C407.307 64.2227 407.34 63.916 407.402 63.6777C407.469 63.4355 407.576 63.2148 407.725 63.0156C407.873 62.8164 408.07 62.5898 408.316 62.3359C408.496 62.1523 408.66 61.9805 408.809 61.8203C408.961 61.6562 409.084 61.4805 409.178 61.293C409.271 61.1016 409.318 60.873 409.318 60.6074C409.318 60.3379 409.27 60.1055 409.172 59.9102C409.078 59.7148 408.938 59.5645 408.75 59.459C408.566 59.3535 408.338 59.3008 408.064 59.3008C407.838 59.3008 407.623 59.3418 407.42 59.4238C407.217 59.5059 407.053 59.6328 406.928 59.8047C406.803 59.9727 406.738 60.1934 406.734 60.4668H405.65C405.658 60.0254 405.768 59.6465 405.979 59.3301C406.193 59.0137 406.482 58.7715 406.846 58.6035C407.209 58.4355 407.615 58.3516 408.064 58.3516C408.561 58.3516 408.982 58.4414 409.33 58.6211C409.682 58.8008 409.949 59.0586 410.133 59.3945C410.316 59.7266 410.408 60.1211 410.408 60.5781C410.408 60.9297 410.336 61.2539 410.191 61.5508C410.051 61.8438 409.869 62.1191 409.646 62.377C409.424 62.6348 409.188 62.8809 408.938 63.1152C408.723 63.3145 408.578 63.5391 408.504 63.7891C408.43 64.0391 408.393 64.3086 408.393 64.5977ZM407.256 66.4551C407.256 66.2793 407.311 66.1309 407.42 66.0098C407.529 65.8887 407.688 65.8281 407.895 65.8281C408.105 65.8281 408.266 65.8887 408.375 66.0098C408.484 66.1309 408.539 66.2793 408.539 66.4551C408.539 66.623 408.484 66.7676 408.375 66.8887C408.266 67.0098 408.105 67.0703 407.895 67.0703C407.688 67.0703 407.529 67.0098 407.42 66.8887C407.311 66.7676 407.256 66.623 407.256 66.4551ZM414.564 64.5977H413.475C413.479 64.2227 413.512 63.916 413.574 63.6777C413.641 63.4355 413.748 63.2148 413.896 63.0156C414.045 62.8164 414.242 62.5898 414.488 62.3359C414.668 62.1523 414.832 61.9805 414.98 61.8203C415.133 61.6562 415.256 61.4805 415.35 61.293C415.443 61.1016 415.49 60.873 415.49 60.6074C415.49 60.3379 415.441 60.1055 415.344 59.9102C415.25 59.7148 415.109 59.5645 414.922 59.459C414.738 59.3535 414.51 59.3008 414.236 59.3008C414.01 59.3008 413.795 59.3418 413.592 59.4238C413.389 59.5059 413.225 59.6328 413.1 59.8047C412.975 59.9727 412.91 60.1934 412.906 60.4668H411.822C411.83 60.0254 411.939 59.6465 412.15 59.3301C412.365 59.0137 412.654 58.7715 413.018 58.6035C413.381 58.4355 413.787 58.3516 414.236 58.3516C414.732 58.3516 415.154 58.4414 415.502 58.6211C415.854 58.8008 416.121 59.0586 416.305 59.3945C416.488 59.7266 416.58 60.1211 416.58 60.5781C416.58 60.9297 416.508 61.2539 416.363 61.5508C416.223 61.8438 416.041 62.1191 415.818 62.377C415.596 62.6348 415.359 62.8809 415.109 63.1152C414.895 63.3145 414.75 63.5391 414.676 63.7891C414.602 64.0391 414.564 64.3086 414.564 64.5977ZM413.428 66.4551C413.428 66.2793 413.482 66.1309 413.592 66.0098C413.701 65.8887 413.859 65.8281 414.066 65.8281C414.277 65.8281 414.438 65.8887 414.547 66.0098C414.656 66.1309 414.711 66.2793 414.711 66.4551C414.711 66.623 414.656 66.7676 414.547 66.8887C414.438 67.0098 414.277 67.0703 414.066 67.0703C413.859 67.0703 413.701 67.0098 413.592 66.8887C413.482 66.7676 413.428 66.623 413.428 66.4551ZM420.736 64.5977H419.646C419.65 64.2227 419.684 63.916 419.746 63.6777C419.812 63.4355 419.92 63.2148 420.068 63.0156C420.217 62.8164 420.414 62.5898 420.66 62.3359C420.84 62.1523 421.004 61.9805 421.152 61.8203C421.305 61.6562 421.428 61.4805 421.521 61.293C421.615 61.1016 421.662 60.873 421.662 60.6074C421.662 60.3379 421.613 60.1055 421.516 59.9102C421.422 59.7148 421.281 59.5645 421.094 59.459C420.91 59.3535 420.682 59.3008 420.408 59.3008C420.182 59.3008 419.967 59.3418 419.764 59.4238C419.561 59.5059 419.396 59.6328 419.271 59.8047C419.146 59.9727 419.082 60.1934 419.078 60.4668H417.994C418.002 60.0254 418.111 59.6465 418.322 59.3301C418.537 59.0137 418.826 58.7715 419.189 58.6035C419.553 58.4355 419.959 58.3516 420.408 58.3516C420.904 58.3516 421.326 58.4414 421.674 58.6211C422.025 58.8008 422.293 59.0586 422.477 59.3945C422.66 59.7266 422.752 60.1211 422.752 60.5781C422.752 60.9297 422.68 61.2539 422.535 61.5508C422.395 61.8438 422.213 62.1191 421.99 62.377C421.768 62.6348 421.531 62.8809 421.281 63.1152C421.066 63.3145 420.922 63.5391 420.848 63.7891C420.773 64.0391 420.736 64.3086 420.736 64.5977ZM419.6 66.4551C419.6 66.2793 419.654 66.1309 419.764 66.0098C419.873 65.8887 420.031 65.8281 420.238 65.8281C420.449 65.8281 420.609 65.8887 420.719 66.0098C420.828 66.1309 420.883 66.2793 420.883 66.4551C420.883 66.623 420.828 66.7676 420.719 66.8887C420.609 67.0098 420.449 67.0703 420.238 67.0703C420.031 67.0703 419.873 67.0098 419.764 66.8887C419.654 66.7676 419.6 66.623 419.6 66.4551ZM435.687 57.088H436.683V63.232H435.687V57.088ZM428.475 57.712H429.459V62.128H428.475V57.712ZM428.475 61.576H429.351C431.163 61.576 432.783 61.456 434.511 61.096L434.655 61.912C432.855 62.296 431.223 62.416 429.351 62.416H428.475V61.576ZM429.675 63.76H436.683V67.792H429.675V63.76ZM435.711 64.552H430.647V66.976H435.711V64.552ZM439.33 62.788H449.134V63.604H439.33V62.788ZM440.602 66.88H448.054V67.696H440.602V66.88ZM440.602 64.552H441.598V67.132H440.602V64.552ZM444.238 57.448C446.554 57.448 448.054 58.264 448.054 59.62C448.054 60.964 446.554 61.78 444.238 61.78C441.91 61.78 440.422 60.964 440.422 59.62C440.422 58.264 441.91 57.448 444.238 57.448ZM444.238 58.264C442.534 58.264 441.442 58.768 441.442 59.62C441.442 60.472 442.534 60.976 444.238 60.976C445.942 60.976 447.034 60.472 447.034 59.62C447.034 58.768 445.942 58.264 444.238 58.264ZM456.822 57.25V58.1406H455.703V67.9375H456.822V68.8281H454.619V57.25H456.822ZM465.929 57.1H466.937V65.044H465.929V57.1ZM459.965 66.88H467.261V67.696H459.965V66.88ZM459.965 64.312H460.949V67.264H459.965V64.312ZM460.865 57.688H461.693V58.792C461.693 60.904 460.493 62.752 458.669 63.496L458.153 62.692C459.785 62.056 460.865 60.472 460.865 58.792V57.688ZM461.045 57.688H461.861V58.792C461.861 60.424 462.953 61.9 464.573 62.488L464.045 63.292C462.245 62.596 461.045 60.856 461.045 58.792V57.688ZM477.468 57.1H478.476V65.02H477.468V57.1ZM471.504 66.88H478.8V67.696H471.504V66.88ZM471.504 64.204H472.488V67.156H471.504V64.204ZM472.656 57.844C474.276 57.844 475.476 58.948 475.476 60.52C475.476 62.08 474.276 63.196 472.656 63.196C471.036 63.196 469.824 62.08 469.824 60.52C469.824 58.948 471.036 57.844 472.656 57.844ZM472.656 58.708C471.6 58.708 470.796 59.452 470.796 60.52C470.796 61.576 471.6 62.32 472.656 62.32C473.712 62.32 474.516 61.576 474.516 60.52C474.516 59.452 473.712 58.708 472.656 58.708ZM481.567 57.856H486.547V62.524H481.567V57.856ZM485.575 58.648H482.539V61.72H485.575V58.648ZM488.539 57.088H489.535V63.352H488.539V57.088ZM489.259 59.74H491.143V60.568H489.259V59.74ZM482.719 63.88H489.535V67.792H482.719V63.88ZM488.563 64.672H483.691V66.988H488.563V64.672ZM492.121 58.1406V57.25H494.336V68.8281H492.121V67.9375H493.246V58.1406H492.121ZM502.911 63.592H503.919V65.38H502.911V63.592ZM507.663 57.088H508.659V67.936H507.663V57.088ZM500.019 65.872L499.887 65.044C501.939 65.032 504.639 65.008 506.979 64.708L507.051 65.44C504.639 65.848 502.023 65.872 500.019 65.872ZM500.115 58.408H506.703V59.212H500.115V58.408ZM503.403 59.836C504.963 59.836 506.019 60.628 506.019 61.84C506.019 63.064 504.963 63.844 503.403 63.844C501.855 63.844 500.799 63.064 500.799 61.84C500.799 60.628 501.855 59.836 503.403 59.836ZM503.403 60.604C502.431 60.604 501.747 61.096 501.747 61.84C501.747 62.584 502.431 63.076 503.403 63.076C504.387 63.076 505.071 62.584 505.071 61.84C505.071 61.096 504.387 60.604 503.403 60.604ZM502.911 57.088H503.907V58.852H502.911V57.088ZM514.438 62.548H515.434V64.96H514.438V62.548ZM519.25 57.088H520.246V65.344H519.25V57.088ZM512.842 66.88H520.51V67.696H512.842V66.88ZM512.842 64.54H513.838V67.108H512.842V64.54ZM511.438 62.92L511.306 62.104C513.31 62.104 515.998 62.08 518.302 61.78L518.374 62.512C516.034 62.884 513.406 62.92 511.438 62.92ZM517.042 63.496H519.502V64.228H517.042V63.496ZM514.834 57.532C516.418 57.532 517.498 58.276 517.498 59.416C517.498 60.568 516.418 61.312 514.834 61.312C513.238 61.312 512.158 60.568 512.158 59.416C512.158 58.276 513.238 57.532 514.834 57.532ZM514.834 58.276C513.814 58.276 513.106 58.72 513.106 59.416C513.106 60.112 513.814 60.556 514.834 60.556C515.842 60.556 516.55 60.112 516.55 59.416C516.55 58.72 515.842 58.276 514.834 58.276ZM530.777 57.076H531.773V67.948H530.777V57.076ZM526.049 57.916C527.657 57.916 528.809 59.392 528.809 61.696C528.809 64.012 527.657 65.488 526.049 65.488C524.453 65.488 523.301 64.012 523.301 61.696C523.301 59.392 524.453 57.916 526.049 57.916ZM526.049 58.816C524.993 58.816 524.249 59.944 524.249 61.696C524.249 63.46 524.993 64.612 526.049 64.612C527.117 64.612 527.849 63.46 527.849 61.696C527.849 59.944 527.117 58.816 526.049 58.816ZM537.264 57.448H538.092V58.456C538.092 60.46 536.844 62.164 535.008 62.812L534.504 62.02C536.136 61.444 537.264 60.016 537.264 58.456V57.448ZM537.444 57.448H538.26V58.456C538.26 59.956 539.4 61.3 541.008 61.816L540.516 62.608C538.692 61.984 537.444 60.388 537.444 58.456V57.448ZM542.328 57.088H543.336V62.908H542.328V57.088ZM536.34 63.448H537.324V64.768H542.352V63.448H543.336V67.792H536.34V63.448ZM537.324 65.56V66.988H542.352V65.56H537.324ZM553.867 57.088H554.863V67.936H553.867V57.088ZM546.667 58.144H547.651V64.864H546.667V58.144ZM546.667 64.276H547.555C549.199 64.276 550.915 64.156 552.751 63.772L552.871 64.624C550.987 65.008 549.271 65.14 547.555 65.14H546.667V64.276ZM564.854 57.076H565.862V67.948H564.854V57.076ZM565.622 61.36H567.638V62.2H565.622V61.36ZM557.978 64.408H558.83C560.834 64.408 562.238 64.336 563.858 64.036L563.966 64.876C562.298 65.188 560.87 65.248 558.83 65.248H557.978V64.408ZM557.978 58.132H563.018V58.948H558.962V64.78H557.978V58.132ZM569.305 66.4258C569.305 66.2422 569.361 66.0879 569.475 65.9629C569.592 65.834 569.76 65.7695 569.979 65.7695C570.197 65.7695 570.363 65.834 570.477 65.9629C570.594 66.0879 570.652 66.2422 570.652 66.4258C570.652 66.6055 570.594 66.7578 570.477 66.8828C570.363 67.0078 570.197 67.0703 569.979 67.0703C569.76 67.0703 569.592 67.0078 569.475 66.8828C569.361 66.7578 569.305 66.6055 569.305 66.4258ZM194.064 86.0547V87.3555C194.064 88.0547 194.002 88.6445 193.877 89.125C193.752 89.6055 193.572 89.9922 193.338 90.2852C193.104 90.5781 192.82 90.791 192.488 90.9238C192.16 91.0527 191.789 91.1172 191.375 91.1172C191.047 91.1172 190.744 91.0762 190.467 90.9941C190.189 90.9121 189.939 90.7812 189.717 90.6016C189.498 90.418 189.311 90.1797 189.154 89.8867C188.998 89.5938 188.879 89.2383 188.797 88.8203C188.715 88.4023 188.674 87.9141 188.674 87.3555V86.0547C188.674 85.3555 188.736 84.7695 188.861 84.2969C188.99 83.8242 189.172 83.4453 189.406 83.1602C189.641 82.8711 189.922 82.6641 190.25 82.5391C190.582 82.4141 190.953 82.3516 191.363 82.3516C191.695 82.3516 192 82.3926 192.277 82.4746C192.559 82.5527 192.809 82.6797 193.027 82.8555C193.246 83.0273 193.432 83.2578 193.584 83.5469C193.74 83.832 193.859 84.1816 193.941 84.5957C194.023 85.0098 194.064 85.4961 194.064 86.0547ZM192.975 87.5312V85.873C192.975 85.4902 192.951 85.1543 192.904 84.8652C192.861 84.5723 192.797 84.3223 192.711 84.1152C192.625 83.9082 192.516 83.7402 192.383 83.6113C192.254 83.4824 192.104 83.3887 191.932 83.3301C191.764 83.2676 191.574 83.2363 191.363 83.2363C191.105 83.2363 190.877 83.2852 190.678 83.3828C190.479 83.4766 190.311 83.627 190.174 83.834C190.041 84.041 189.939 84.3125 189.869 84.6484C189.799 84.9844 189.764 85.3926 189.764 85.873V87.5312C189.764 87.9141 189.785 88.252 189.828 88.5449C189.875 88.8379 189.943 89.0918 190.033 89.3066C190.123 89.5176 190.232 89.6914 190.361 89.8281C190.49 89.9648 190.639 90.0664 190.807 90.1328C190.979 90.1953 191.168 90.2266 191.375 90.2266C191.641 90.2266 191.873 90.1758 192.072 90.0742C192.271 89.9727 192.438 89.8145 192.57 89.5996C192.707 89.3809 192.809 89.1016 192.875 88.7617C192.941 88.418 192.975 88.0078 192.975 87.5312ZM198.922 86.548H199.918V88.96H198.922V86.548ZM203.734 81.088H204.73V89.344H203.734V81.088ZM197.326 90.88H204.994V91.696H197.326V90.88ZM197.326 88.54H198.322V91.108H197.326V88.54ZM195.922 86.92L195.79 86.104C197.794 86.104 200.482 86.08 202.786 85.78L202.858 86.512C200.518 86.884 197.89 86.92 195.922 86.92ZM201.526 87.496H203.986V88.228H201.526V87.496ZM199.318 81.532C200.902 81.532 201.982 82.276 201.982 83.416C201.982 84.568 200.902 85.312 199.318 85.312C197.722 85.312 196.642 84.568 196.642 83.416C196.642 82.276 197.722 81.532 199.318 81.532ZM199.318 82.276C198.298 82.276 197.59 82.72 197.59 83.416C197.59 84.112 198.298 84.556 199.318 84.556C200.326 84.556 201.034 84.112 201.034 83.416C201.034 82.72 200.326 82.276 199.318 82.276ZM215.261 81.076H216.257V91.948H215.261V81.076ZM210.533 81.916C212.141 81.916 213.293 83.392 213.293 85.696C213.293 88.012 212.141 89.488 210.533 89.488C208.937 89.488 207.785 88.012 207.785 85.696C207.785 83.392 208.937 81.916 210.533 81.916ZM210.533 82.816C209.477 82.816 208.733 83.944 208.733 85.696C208.733 87.46 209.477 88.612 210.533 88.612C211.601 88.612 212.333 87.46 212.333 85.696C212.333 83.944 211.601 82.816 210.533 82.816ZM221.556 81.652H222.384V82.756C222.384 84.844 221.208 86.572 219.396 87.28L218.868 86.476C220.5 85.876 221.556 84.412 221.556 82.756V81.652ZM221.736 81.652H222.552V82.828C222.552 84.292 223.632 85.648 225.192 86.188L224.664 86.968C222.924 86.32 221.736 84.712 221.736 82.828V81.652ZM226.344 81.088H227.34V87.664H226.344V81.088ZM227.064 83.884H228.948V84.724H227.064V83.884ZM223.884 87.964C226.104 87.964 227.448 88.696 227.448 89.944C227.448 91.192 226.104 91.912 223.884 91.912C221.664 91.912 220.32 91.192 220.32 89.944C220.32 88.696 221.664 87.964 223.884 87.964ZM223.884 88.756C222.276 88.756 221.292 89.188 221.292 89.944C221.292 90.7 222.276 91.132 223.884 91.132C225.492 91.132 226.476 90.7 226.476 89.944C226.476 89.188 225.492 88.756 223.884 88.756ZM235.168 81.796H241.948V82.6H235.168V81.796ZM233.944 86.452H243.748V87.268H233.944V86.452ZM238.324 86.992H239.32V91.948H238.324V86.992ZM241.48 81.796H242.452V82.732C242.452 83.86 242.452 85.132 242.044 86.968L241.06 86.836C241.48 85.084 241.48 83.824 241.48 82.732V81.796ZM253.739 81.088H254.699V91.936H253.739V81.088ZM252.023 85.384H254.099V86.2H252.023V85.384ZM251.339 81.316H252.287V91.396H251.339V81.316ZM245.867 82.336H250.007V89.032H245.867V82.336ZM249.071 83.128H246.803V88.24H249.071V83.128ZM259.878 82.024H260.694V83.968C260.694 86.464 259.35 88.78 257.574 89.68L256.962 88.864C258.57 88.096 259.878 86.02 259.878 83.968V82.024ZM260.046 82.024H260.862V83.968C260.862 85.948 262.158 87.94 263.766 88.684L263.166 89.476C261.402 88.612 260.046 86.38 260.046 83.968V82.024ZM264.894 81.076H265.89V91.948H264.894V81.076ZM275.709 82.4219V91H274.625V83.7754L272.439 84.5723V83.5938L275.539 82.4219H275.709ZM279.531 90.4258C279.531 90.2422 279.588 90.0879 279.701 89.9629C279.818 89.834 279.986 89.7695 280.205 89.7695C280.424 89.7695 280.59 89.834 280.703 89.9629C280.82 90.0879 280.879 90.2422 280.879 90.4258C280.879 90.6055 280.82 90.7578 280.703 90.8828C280.59 91.0078 280.424 91.0703 280.205 91.0703C279.986 91.0703 279.818 91.0078 279.701 90.8828C279.588 90.7578 279.531 90.6055 279.531 90.4258ZM284.432 86.9395L283.564 86.7168L283.992 82.4688H288.369V83.4707H284.912L284.654 85.791C284.811 85.7012 285.008 85.6172 285.246 85.5391C285.488 85.4609 285.766 85.4219 286.078 85.4219C286.473 85.4219 286.826 85.4902 287.139 85.627C287.451 85.7598 287.717 85.9512 287.936 86.2012C288.158 86.4512 288.328 86.752 288.445 87.1035C288.562 87.4551 288.621 87.8477 288.621 88.2812C288.621 88.6914 288.564 89.0684 288.451 89.4121C288.342 89.7559 288.176 90.0566 287.953 90.3145C287.73 90.5684 287.449 90.7656 287.109 90.9062C286.773 91.0469 286.377 91.1172 285.92 91.1172C285.576 91.1172 285.25 91.0703 284.941 90.9766C284.637 90.8789 284.363 90.7324 284.121 90.5371C283.883 90.3379 283.688 90.0918 283.535 89.7988C283.387 89.502 283.293 89.1543 283.254 88.7559H284.285C284.332 89.0762 284.426 89.3457 284.566 89.5645C284.707 89.7832 284.891 89.9492 285.117 90.0625C285.348 90.1719 285.615 90.2266 285.92 90.2266C286.178 90.2266 286.406 90.1816 286.605 90.0918C286.805 90.002 286.973 89.873 287.109 89.7051C287.246 89.5371 287.35 89.334 287.42 89.0957C287.494 88.8574 287.531 88.5898 287.531 88.293C287.531 88.0234 287.494 87.7734 287.42 87.543C287.346 87.3125 287.234 87.1113 287.086 86.9395C286.941 86.7676 286.764 86.6348 286.553 86.541C286.342 86.4434 286.1 86.3945 285.826 86.3945C285.463 86.3945 285.188 86.4434 285 86.541C284.816 86.6387 284.627 86.7715 284.432 86.9395ZM290.217 84.5605V84.1094C290.217 83.7852 290.287 83.4902 290.428 83.2246C290.568 82.959 290.77 82.7461 291.031 82.5859C291.293 82.4258 291.604 82.3457 291.963 82.3457C292.33 82.3457 292.643 82.4258 292.9 82.5859C293.162 82.7461 293.363 82.959 293.504 83.2246C293.645 83.4902 293.715 83.7852 293.715 84.1094V84.5605C293.715 84.877 293.645 85.168 293.504 85.4336C293.367 85.6992 293.168 85.9121 292.906 86.0723C292.648 86.2324 292.338 86.3125 291.975 86.3125C291.611 86.3125 291.297 86.2324 291.031 86.0723C290.77 85.9121 290.568 85.6992 290.428 85.4336C290.287 85.168 290.217 84.877 290.217 84.5605ZM291.031 84.1094V84.5605C291.031 84.7402 291.064 84.9102 291.131 85.0703C291.201 85.2305 291.307 85.3613 291.447 85.4629C291.588 85.5605 291.764 85.6094 291.975 85.6094C292.186 85.6094 292.359 85.5605 292.496 85.4629C292.633 85.3613 292.734 85.2305 292.801 85.0703C292.867 84.9102 292.9 84.7402 292.9 84.5605V84.1094C292.9 83.9258 292.865 83.7539 292.795 83.5938C292.729 83.4297 292.625 83.2988 292.484 83.2012C292.348 83.0996 292.174 83.0488 291.963 83.0488C291.756 83.0488 291.582 83.0996 291.441 83.2012C291.305 83.2988 291.201 83.4297 291.131 83.5938C291.064 83.7539 291.031 83.9258 291.031 84.1094ZM294.371 89.3652V88.9082C294.371 88.5879 294.441 88.2949 294.582 88.0293C294.723 87.7637 294.924 87.5508 295.186 87.3906C295.447 87.2305 295.758 87.1504 296.117 87.1504C296.484 87.1504 296.797 87.2305 297.055 87.3906C297.316 87.5508 297.518 87.7637 297.658 88.0293C297.799 88.2949 297.869 88.5879 297.869 88.9082V89.3652C297.869 89.6855 297.799 89.9785 297.658 90.2441C297.521 90.5098 297.322 90.7227 297.061 90.8828C296.803 91.043 296.492 91.123 296.129 91.123C295.766 91.123 295.453 91.043 295.191 90.8828C294.93 90.7227 294.727 90.5098 294.582 90.2441C294.441 89.9785 294.371 89.6855 294.371 89.3652ZM295.186 88.9082V89.3652C295.186 89.5449 295.219 89.7168 295.285 89.8809C295.355 90.041 295.461 90.1719 295.602 90.2734C295.742 90.3711 295.918 90.4199 296.129 90.4199C296.34 90.4199 296.514 90.3711 296.65 90.2734C296.791 90.1719 296.895 90.041 296.961 89.8809C297.027 89.7207 297.061 89.5488 297.061 89.3652V88.9082C297.061 88.7246 297.025 88.5527 296.955 88.3926C296.889 88.2324 296.785 88.1035 296.645 88.0059C296.508 87.9043 296.332 87.8535 296.117 87.8535C295.91 87.8535 295.736 87.9043 295.596 88.0059C295.459 88.1035 295.355 88.2324 295.285 88.3926C295.219 88.5527 295.186 88.7246 295.186 88.9082ZM296.387 83.6816L292.221 90.3496L291.611 89.9629L295.777 83.2949L296.387 83.6816ZM304.387 81.268C306.775 81.268 308.203 81.94 308.203 83.152C308.203 84.364 306.775 85.036 304.387 85.036C301.987 85.036 300.571 84.364 300.571 83.152C300.571 81.94 301.987 81.268 304.387 81.268ZM304.387 82.024C302.611 82.024 301.591 82.432 301.591 83.152C301.591 83.872 302.611 84.28 304.387 84.28C306.151 84.28 307.171 83.872 307.171 83.152C307.171 82.432 306.151 82.024 304.387 82.024ZM299.479 85.756H309.283V86.56H299.479V85.756ZM300.667 87.484H308.035V89.932H301.675V91.252H300.691V89.212H307.051V88.252H300.667V87.484ZM300.691 91.036H308.359V91.816H300.691V91.036ZM318.91 87.988H319.894V91.948H318.91V87.988ZM314.506 87.64H324.31V88.468H314.506V87.64ZM318.898 82.948H319.774V83.224C319.774 85.096 317.746 86.476 315.466 86.824L315.118 86.032C317.074 85.768 318.898 84.58 318.898 83.224V82.948ZM319.03 82.948H319.894V83.224C319.894 84.568 321.73 85.768 323.674 86.032L323.314 86.824C321.046 86.488 319.03 85.072 319.03 83.224V82.948ZM315.454 82.42H323.362V83.236H315.454V82.42ZM318.91 81.088H319.894V82.708H318.91V81.088ZM333.377 81.076H334.385V91.936H333.377V81.076ZM334.109 85.48H336.113V86.308H334.109V85.48ZM330.605 82.252H331.577C331.577 85.336 330.161 88.12 326.657 89.884L326.105 89.116C329.105 87.592 330.605 85.276 330.605 82.408V82.252ZM326.609 82.252H331.121V83.068H326.609V82.252ZM340.344 82.192H341.16V83.068C341.16 85.048 339.936 86.74 338.124 87.412L337.608 86.62C339.228 86.044 340.344 84.604 340.344 83.068V82.192ZM340.536 82.192H341.34V83.068C341.34 84.46 342.396 85.816 343.968 86.368L343.464 87.16C341.7 86.512 340.536 84.88 340.536 83.068V82.192ZM343.38 83.908H345.792V84.736H343.38V83.908ZM337.92 81.832H343.716V82.636H337.92V81.832ZM339.264 88.168H346.5V91.936H345.504V88.984H339.264V88.168ZM345.504 81.088H346.5V87.58H345.504V81.088ZM357.007 81.088H358.015V87.052H357.007V81.088ZM349.675 86.008H350.551C352.519 86.008 353.971 85.948 355.711 85.66L355.819 86.488C354.031 86.764 352.567 86.824 350.551 86.824H349.675V86.008ZM349.651 81.616H354.571V84.556H350.647V86.548H349.675V83.776H353.599V82.42H349.651V81.616ZM350.995 87.592H351.979V88.864H357.031V87.592H358.015V91.792H350.995V87.592ZM351.979 89.656V90.976H357.031V89.656H351.979ZM371.555 81.088H372.551V87.436H371.555V81.088ZM372.275 83.692H374.159V84.532H372.275V83.692ZM364.583 81.688H365.567V83.344H368.627V81.688H369.599V86.752H364.583V81.688ZM365.567 84.136V85.948H368.627V84.136H365.567ZM365.771 88.024H372.635V88.828H366.767V91.552H365.771V88.024ZM365.771 90.976H372.851V91.792H365.771V90.976ZM380.574 81.772C382.83 81.772 384.51 82.972 384.51 84.772C384.51 86.584 382.83 87.772 380.574 87.772C378.318 87.772 376.626 86.584 376.626 84.772C376.626 82.972 378.318 81.772 380.574 81.772ZM380.574 82.588C378.858 82.588 377.586 83.464 377.586 84.772C377.586 86.068 378.858 86.956 380.574 86.956C382.29 86.956 383.562 86.068 383.562 84.772C383.562 83.464 382.29 82.588 380.574 82.588ZM375.678 89.668H385.506V90.508H375.678V89.668ZM395.101 81.088H396.097V86.704H395.101V81.088ZM389.089 87.256H396.109V89.86H390.085V91.348H389.113V89.116H395.125V88.036H389.089V87.256ZM389.113 91.024H396.469V91.816H389.113V91.024ZM390.037 81.4H390.865V82.228C390.865 84.232 389.617 85.936 387.781 86.608L387.289 85.816C388.921 85.24 390.037 83.8 390.037 82.228V81.4ZM390.217 81.4H391.033V82.228C391.033 83.728 392.173 85.084 393.781 85.612L393.289 86.392C391.465 85.768 390.217 84.172 390.217 82.228V81.4ZM406.613 81.472H407.489V82.072C407.489 84.148 405.377 85.636 403.121 86.02L402.725 85.216C404.705 84.916 406.613 83.62 406.613 82.072V81.472ZM406.793 81.472H407.657V82.072C407.657 83.584 409.589 84.916 411.545 85.216L411.149 86.02C408.917 85.636 406.793 84.124 406.793 82.072V81.472ZM406.613 87.808H407.597V91.936H406.613V87.808ZM402.233 87.196H412.037V88.024H402.233V87.196ZM419.948 87.76H420.716V88.348C420.716 89.764 419.828 91.192 418.268 91.792L417.764 91.048C419.132 90.556 419.948 89.392 419.948 88.348V87.76ZM420.164 87.76H420.908V88.348C420.908 89.44 421.556 90.604 422.852 91.132L422.432 91.888C420.872 91.276 420.164 89.788 420.164 88.348V87.76ZM423.956 87.76H424.7V88.348C424.7 89.62 423.98 91.228 422.432 91.888L422.012 91.132C423.296 90.544 423.956 89.284 423.956 88.348V87.76ZM424.16 87.76H424.928V88.348C424.928 89.464 425.732 90.58 427.112 91.048L426.608 91.792C425.024 91.216 424.16 89.848 424.16 88.348V87.76ZM425.132 81.1H426.14V87.292H425.132V81.1ZM420.32 81.724C421.964 81.724 423.14 82.756 423.14 84.256C423.14 85.756 421.964 86.776 420.32 86.776C418.676 86.776 417.488 85.756 417.488 84.256C417.488 82.756 418.676 81.724 420.32 81.724ZM420.32 82.552C419.24 82.552 418.46 83.248 418.46 84.256C418.46 85.264 419.24 85.948 420.32 85.948C421.4 85.948 422.18 85.264 422.18 84.256C422.18 83.248 421.4 82.552 420.32 82.552ZM430.024 87.592H431.008V88.852H436.312V87.592H437.308V91.792H430.024V87.592ZM431.008 89.62V90.988H436.312V89.62H431.008ZM428.776 86.032H438.58V86.836H428.776V86.032ZM433.18 81.208H434.032V81.688C434.032 83.572 431.932 84.928 429.7 85.264L429.34 84.484C431.296 84.22 433.18 83.056 433.18 81.688V81.208ZM433.336 81.208H434.188V81.688C434.188 83.032 436.096 84.22 438.028 84.484L437.656 85.264C435.448 84.928 433.336 83.548 433.336 81.688V81.208ZM448.211 81.088H449.207V91.936H448.211V81.088ZM441.011 82.144H441.995V88.864H441.011V82.144ZM441.011 88.276H441.899C443.543 88.276 445.259 88.156 447.095 87.772L447.215 88.624C445.331 89.008 443.615 89.14 441.899 89.14H441.011V88.276ZM459.198 81.076H460.206V91.948H459.198V81.076ZM459.966 85.36H461.982V86.2H459.966V85.36ZM452.322 88.408H453.174C455.178 88.408 456.582 88.336 458.202 88.036L458.31 88.876C456.642 89.188 455.214 89.248 453.174 89.248H452.322V88.408ZM452.322 82.132H457.362V82.948H453.306V88.78H452.322V82.132ZM463.648 90.4258C463.648 90.2422 463.705 90.0879 463.818 89.9629C463.936 89.834 464.104 89.7695 464.322 89.7695C464.541 89.7695 464.707 89.834 464.82 89.9629C464.938 90.0879 464.996 90.2422 464.996 90.4258C464.996 90.6055 464.938 90.7578 464.82 90.8828C464.707 91.0078 464.541 91.0703 464.322 91.0703C464.104 91.0703 463.936 91.0078 463.818 90.8828C463.705 90.7578 463.648 90.6055 463.648 90.4258Z" fill="#949494"/>
<path d="M39.125 75.5C39.125 55.4107 55.4107 39.125 75.5 39.125C95.5895 39.125 111.875 55.4107 111.875 75.5C111.875 95.5895 95.5895 111.875 75.5 111.875C55.4107 111.875 39.125 95.5895 39.125 75.5Z" fill="#2A4157" fill-opacity="0.24"/>
<path d="M75.5002 83.5833C84.4288 83.5833 91.6668 76.3453 91.6668 67.4167C91.6668 58.4881 84.4288 51.25 75.5002 51.25C66.5716 51.25 59.3335 58.4881 59.3335 67.4167C59.3335 76.3453 66.5716 83.5833 75.5002 83.5833Z" fill="#949494"/>
<path fill-rule="evenodd" clip-rule="evenodd" d="M100.643 100.745C100.878 101.135 100.806 101.633 100.476 101.945C93.96 108.101 85.171 111.875 75.5001 111.875C65.8295 111.875 57.0404 108.101 50.5249 101.946C50.1943 101.633 50.1225 101.135 50.3576 100.745C55.0629 92.9519 64.5559 87.625 75.5005 87.625C86.4445 87.625 95.9376 92.9515 100.643 100.745Z" fill="#949494"/>
</svg>
