<svg width="14" height="14" viewBox="0 0 14 14" fill="none" xmlns="http://www.w3.org/2000/svg">
<path d="M10.5 0C11.4625 0 12.32 0.472141 12.9675 1.21114C13.5975 1.95015 14 2.95601 14 4.10557C14 5.2346 13.5975 6.24047 12.9675 7L7 14L1.0325 7C0.4025 6.261 0 5.25513 0 4.10557C0 2.97654 0.4025 1.97067 1.0325 1.21114C1.6625 0.472141 2.52 0 3.5 0C4.4625 0 5.32 0.472141 5.9675 1.21114C6.5975 1.95015 7 2.95601 7 4.10557C7 2.97654 7.4025 1.97067 8.0325 1.21114C8.6625 0.472141 9.52 0 10.5 0Z" fill="#D9D9D9"/>
</svg>
