<svg width="21" height="20" viewBox="0 0 21 20" fill="none" xmlns="http://www.w3.org/2000/svg">
<path id="insta" d="M15.46 3.46C15.2227 3.46 14.9906 3.53038 14.7933 3.66224C14.596 3.79409 14.4422 3.98151 14.3513 4.20078C14.2605 4.42005 14.2368 4.66133 14.2831 4.89411C14.3294 5.12689 14.4436 5.34071 14.6115 5.50853C14.7793 5.67635 14.9931 5.79064 15.2259 5.83694C15.4587 5.88324 15.6999 5.85948 15.9192 5.76866C16.1385 5.67783 16.3259 5.52402 16.4578 5.32668C16.5896 5.12935 16.66 4.89734 16.66 4.66C16.66 4.34174 16.5336 4.03652 16.3085 3.81147C16.0835 3.58643 15.7783 3.46 15.46 3.46ZM20.06 5.88C20.0405 5.0503 19.8852 4.2294 19.6 3.45C19.3457 2.78313 18.95 2.17928 18.44 1.68C17.9448 1.16743 17.3396 0.774176 16.67 0.53C15.8927 0.236161 15.0708 0.07721 14.24 0.0599999C13.18 -5.58794e-08 12.84 0 10.12 0C7.39999 0 7.06 -5.58794e-08 6 0.0599999C5.16915 0.07721 4.34734 0.236161 3.56999 0.53C2.90167 0.776649 2.29693 1.16956 1.8 1.68C1.28742 2.17518 0.894172 2.78044 0.649995 3.45C0.356156 4.22734 0.197205 5.04915 0.179995 5.88C0.119995 6.94 0.119995 7.28 0.119995 10C0.119995 12.72 0.119995 13.06 0.179995 14.12C0.197205 14.9508 0.356156 15.7727 0.649995 16.55C0.894172 17.2196 1.28742 17.8248 1.8 18.32C2.29693 18.8304 2.90167 19.2234 3.56999 19.47C4.34734 19.7638 5.16915 19.9228 6 19.94C7.06 20 7.39999 20 10.12 20C12.84 20 13.18 20 14.24 19.94C15.0708 19.9228 15.8927 19.7638 16.67 19.47C17.3396 19.2258 17.9448 18.8326 18.44 18.32C18.9522 17.8226 19.3483 17.2182 19.6 16.55C19.8852 15.7706 20.0405 14.9497 20.06 14.12C20.06 13.06 20.12 12.72 20.12 10C20.12 7.28 20.12 6.94 20.06 5.88ZM18.26 14C18.2527 14.6348 18.1377 15.2637 17.92 15.86C17.7603 16.2952 17.5039 16.6884 17.17 17.01C16.8456 17.3405 16.4532 17.5964 16.02 17.76C15.4237 17.9778 14.7948 18.0927 14.16 18.1C13.16 18.15 12.79 18.16 10.16 18.16C7.52999 18.16 7.16 18.16 6.16 18.1C5.50089 18.1123 4.84459 18.0109 4.22 17.8C3.80578 17.6281 3.43135 17.3728 3.12 17.05C2.78808 16.7287 2.53484 16.3352 2.38 15.9C2.13585 15.2952 2.00044 14.6519 1.98 14C1.98 13 1.92 12.63 1.92 10C1.92 7.37 1.92 7 1.98 6C1.98448 5.35106 2.10295 4.70795 2.33 4.1C2.50604 3.67791 2.77626 3.30166 3.12 3C3.42381 2.65617 3.79928 2.3831 4.22 2.2C4.82955 1.98004 5.47199 1.86508 6.12 1.86C7.12 1.86 7.49 1.8 10.12 1.8C12.75 1.8 13.12 1.8 14.12 1.86C14.7548 1.86728 15.3837 1.98225 15.98 2.2C16.4344 2.36865 16.8423 2.64285 17.17 3C17.4977 3.30718 17.7538 3.68273 17.92 4.1C18.1422 4.70893 18.2573 5.35178 18.26 6C18.31 7 18.32 7.37 18.32 10C18.32 12.63 18.31 13 18.26 14ZM10.12 4.87C9.10581 4.87198 8.11496 5.17453 7.27265 5.73942C6.43034 6.30431 5.77437 7.1062 5.38763 8.04375C5.00088 8.98131 4.90072 10.0125 5.09979 11.0069C5.29886 12.0014 5.78823 12.9145 6.50607 13.631C7.22391 14.3474 8.13801 14.835 9.13285 15.0321C10.1277 15.2293 11.1587 15.1271 12.0955 14.7385C13.0323 14.35 13.8329 13.6924 14.3961 12.849C14.9594 12.0056 15.26 11.0142 15.26 10C15.2613 9.3251 15.1292 8.65661 14.8712 8.03296C14.6133 7.40931 14.2346 6.84281 13.7569 6.36605C13.2792 5.88929 12.7119 5.51168 12.0878 5.25493C11.4636 4.99818 10.7949 4.86736 10.12 4.87ZM10.12 13.33C9.46138 13.33 8.81756 13.1347 8.26995 12.7688C7.72233 12.4029 7.29552 11.8828 7.04348 11.2743C6.79144 10.6659 6.72549 9.99631 6.85398 9.35035C6.98247 8.70439 7.29962 8.11104 7.76533 7.64533C8.23104 7.17963 8.82439 6.86247 9.47034 6.73398C10.1163 6.6055 10.7859 6.67144 11.3943 6.92348C12.0028 7.17552 12.5229 7.60234 12.8888 8.14995C13.2547 8.69757 13.45 9.34139 13.45 10C13.45 10.4373 13.3639 10.8703 13.1965 11.2743C13.0292 11.6784 12.7839 12.0454 12.4747 12.3547C12.1654 12.6639 11.7983 12.9092 11.3943 13.0765C10.9903 13.2439 10.5573 13.33 10.12 13.33Z" fill="#868686"/>
</svg>
