<svg id="Layer_1" data-name="Layer 1" xmlns="http://www.w3.org/2000/svg" viewBox="0 0 325 110"><defs><style>.cls-1{fill:#ffdf5a;}</style></defs><title>Artboard 1 copy</title><path class="cls-1" d="M67.5,44.11A.93.93,0,0,1,68,45a23.05,23.05,0,0,1-.36,2.74q-1.17,5.67-1.71,9.9-.18,1.89-.72,4.77c-.36,2.28-.42,3.62-.18,4s1,.31,2.43-.23q.81-.27,2.25-.63,2.07-.63,3.15-1l2.34-.63,1.17-.36,1.17-.36q1.17-.36,2.7-.72l2.88-.72q2.52-.72,2.52.54,0,.72-4,2.16-4.68,1.62-9.72,3.78Q70,69,67.09,70.08a17.14,17.14,0,0,1-3.55,1q-1.8.18-2.34-.9t0-4q.18-1.08.45-3.24.45-3.15,1.17-7.47.45-2.52.54-3.78.72-6.21,1.71-7.29A1.7,1.7,0,0,1,67.5,44.11Zm26-5.17A3.19,3.19,0,0,1,94,41.5q-.18,1.89-.32,7.2c-.09,3.54-.1,5.46,0,5.76a.57.57,0,0,0,.76.41A16.3,16.3,0,0,0,97,53.65a38.86,38.86,0,0,1,7.2-2.88l2.34-.72c1.44-.42,3-.81,4.77-1.17l1.08-.27,1.08-.27,2.34-.45c2.16-.42,3.62-.75,4.41-1A55.59,55.59,0,0,1,128,45.46a1.86,1.86,0,0,1,1.44.27q1.26,1.53-6.2,3.15-6.67,1.44-14,3.65a68.11,68.11,0,0,0-10.48,3.82A20.81,20.81,0,0,1,95,57.79c-.66.06-1,.29-1.17.68a16.43,16.43,0,0,0-.18,3.28q-.09,8.19-1.44,8.19-1.62,0-1.71-9.63,0-4.41-.18-7.11-.09-2.16,0-7.2a44.52,44.52,0,0,1,.27-5,3.18,3.18,0,0,1,1.08-1.8C92.4,38.59,93,38.49,93.46,38.94Z"/><path class="cls-1" d="M140.66,44.11a.93.93,0,0,1,.45.86,23.05,23.05,0,0,1-.36,2.74q-1.17,5.67-1.71,9.9-.18,1.89-.72,4.77c-.36,2.28-.42,3.62-.18,4s1.05.31,2.43-.23q.81-.27,2.25-.63,2.07-.63,3.15-1l2.34-.63,1.17-.36,1.17-.36q1.17-.36,2.7-.72l2.88-.72q2.52-.72,2.52.54,0,.72-4.05,2.16Q150,66.07,145,68.23q-1.8.81-4.72,1.85a17.15,17.15,0,0,1-3.56,1q-1.8.18-2.34-.9t0-4q.18-1.08.45-3.24.45-3.15,1.17-7.47.45-2.52.54-3.78.72-6.21,1.71-7.29A1.7,1.7,0,0,1,140.66,44.11Zm26-5.17a3.2,3.2,0,0,1,.49,2.56q-.18,1.89-.31,7.2c-.09,3.54-.11,5.46-.05,5.76a.58.58,0,0,0,.77.41,16.36,16.36,0,0,0,2.65-1.22,38.86,38.86,0,0,1,7.2-2.88l2.34-.72q2.16-.63,4.77-1.17l1.08-.27,1.08-.27,2.34-.45q3.24-.63,4.41-1a56,56,0,0,1,7.74-1.44,1.86,1.86,0,0,1,1.44.27q1.26,1.53-6.21,3.15-6.66,1.44-14,3.65a67.92,67.92,0,0,0-10.49,3.82,20.81,20.81,0,0,1-3.78,1.44c-.66.06-1.05.29-1.17.68a16.43,16.43,0,0,0-.18,3.28q-.09,8.19-1.44,8.19-1.62,0-1.71-9.63,0-4.41-.18-7.11-.09-2.16,0-7.2a44.52,44.52,0,0,1,.27-5,3.18,3.18,0,0,1,1.08-1.8C165.56,38.59,166.18,38.49,166.63,38.94Z"/><path class="cls-1" d="M223,20.26a2.16,2.16,0,0,1,1.22.36,1.52,1.52,0,0,1,.49,1.13c0,.51,0,2.2,0,5.08s-.08,4.68,0,5.22A2.66,2.66,0,0,0,225,33.4a1.74,1.74,0,0,1,.18,1.71,28,28,0,0,0-.59,5.13,30.85,30.85,0,0,0,0,5.13,2,2,0,0,1-1.35,2.43,29.42,29.42,0,0,0-5.67,3,14.66,14.66,0,0,1-2.34,1.4A1.89,1.89,0,0,1,214,52a2.36,2.36,0,0,1-1.22-.9.63.63,0,0,1,.14-.9,3.3,3.3,0,0,1,2.07-.9q.81,0,4.05-1.89a7.59,7.59,0,0,1,1.62-.9c.36,0,.58-.3.67-.9a30.89,30.89,0,0,0,.14-3.69,17.69,17.69,0,0,0-.14-4.09c-.15-.39-.58-.5-1.3-.32a23.38,23.38,0,0,0-4,2.07q-2.7,1.62-2.88,2.16-.09.27-1.17.81a2.26,2.26,0,0,0-1.26,1.13,5.07,5.07,0,0,0,0,2.38c.24,2.34.36,3.83.36,4.46a2.24,2.24,0,0,1-.45,1.48q-.54.63-1.08.45a1.64,1.64,0,0,1-.9-.9,21.07,21.07,0,0,1-1.08-5.85,30.42,30.42,0,0,1-.18-6.39q.27-1.89.49-6.79T208,26.2a4.41,4.41,0,0,1,.49-3.15,1.89,1.89,0,0,1,2.25-.67c1,.27,1.28,1,.86,2.11a39.36,39.36,0,0,0-.45,4.59q-.27,4-.27,7.2a5.45,5.45,0,0,0,.27,2.43q.27.27,1.35-.63a20,20,0,0,1,1.89-1.17,18.6,18.6,0,0,0,2.25-1.44,11.08,11.08,0,0,1,3.6-1.62,2.22,2.22,0,0,0,.81-.36.93.93,0,0,0,.18-.63q0-2.61.31-7.15a32.88,32.88,0,0,1,.5-4.91A1,1,0,0,1,223,20.26Zm18.09,38.3c.51.21.76.49.76.85,0,.54-.67,1.07-2,1.58s-4.19,1.33-8.5,2.47q-6,1.53-7.38,1.67a1.62,1.62,0,0,1-1.8-.77c-.36-.9,0-1.62,1.21-2.16a39.28,39.28,0,0,1,7.51-1.89q3.06-.54,3.15-.54,2-.45,3.15-.63a11.65,11.65,0,0,0,2.79-.54C240.16,58.36,240.54,58.35,241.05,58.56Zm-1.94,9.58a1.38,1.38,0,0,1,.72,1.62,26.77,26.77,0,0,1-1.62,3.6q-1.44,2.88-2.07,3.87a20.25,20.25,0,0,0-1.52,2.52c-.55,1-1.17,2-1.9,3.06-.59.84-1.56,2.25-2.87,4.23-2.34,3.54-3.91,5.07-4.68,4.59-.25-.12-.37-.45-.37-1A5.07,5.07,0,0,1,226,88.12a33.88,33.88,0,0,0,2.25-3.42c1.2-1.86,1.86-2.91,2-3.15q1-1.62,2.87-5.4A28.34,28.34,0,0,0,235,72c0-.72-.84-.75-2.51-.09a12.47,12.47,0,0,0-1.54.81c-1.68,1.14-2.82,1.71-3.41,1.71a3.62,3.62,0,0,0-1.26.63,8.49,8.49,0,0,1-1.85,1,1.41,1.41,0,0,1-1-.14c-.54-.36-.68-1-.41-1.89a2.58,2.58,0,0,1,1.58-1.8,23.62,23.62,0,0,0,3.33-1.53,32.49,32.49,0,0,1,5-2.34,12.41,12.41,0,0,1,2.89-.54A7.14,7.14,0,0,1,239.11,68.14Zm6.48,13a30.57,30.57,0,0,0,5.09,2.38A20.33,20.33,0,0,0,255.22,85a62.57,62.57,0,0,1,6.21,2.79q3.24,1.53,3.15,2.52,0,1.17-4.5,0A20.87,20.87,0,0,1,256,88.84l-1.44-.63q-.09,0-1.62-.63t-5.13-2.16a28.55,28.55,0,0,1-4.59-2.07,32.94,32.94,0,0,0-2.88-1.8,15.14,15.14,0,0,1-2.24-1.35,1.52,1.52,0,0,1-.14-1,1.51,1.51,0,0,1,.31-.94Q239.2,77.14,245.59,81.1Zm1.76-62.37a1.44,1.44,0,0,1,.94.54q.45.63-.18,7.65-.18,1.71-.45,8.55-.45,11.88-1,14.13a2.46,2.46,0,0,1-.81,1.31.68.68,0,0,1-1,0q-.63-.63-.72-8.1a99.65,99.65,0,0,1,.45-12.15,46.25,46.25,0,0,0,.27-5.67,19,19,0,0,1,.32-4.14,3.31,3.31,0,0,1,1.12-1.89A1.52,1.52,0,0,1,247.35,18.73Z"/></svg>