<svg width="520" height="74" viewBox="0 0 520 74" fill="none" xmlns="http://www.w3.org/2000/svg">
<path d="M0.72 57V5.48H10.1L19.48 31.59C20.74 34.95 21.79 38.45 22.98 41.95H23.26C24.52 38.45 25.5 34.95 26.62 31.59L35.93 5.48H45.31V57H37.82V31.59C37.82 26.9 38.45 20.32 38.87 15.63H38.59L34.39 27.53L25.43 52.1H20.39L11.43 27.53L7.3 15.63H7.02C7.44 20.32 8.07 26.9 8.07 31.59V57H0.72ZM74.2255 57.98C63.7255 57.98 55.4655 50.49 55.4655 37.82C55.4655 25.29 64.0755 17.52 73.0355 17.52C83.1855 17.52 88.7155 24.87 88.7155 35.79C88.7155 37.4 88.5755 38.94 88.3655 39.92H63.3755C64.0055 47.27 68.6255 51.61 75.2755 51.61C78.7055 51.61 81.5755 50.56 84.4455 48.74L87.2455 53.92C83.6755 56.3 79.2655 57.98 74.2255 57.98ZM63.2355 34.32H81.7155C81.7155 27.67 78.7755 23.89 73.1755 23.89C68.3455 23.89 64.0755 27.6 63.2355 34.32ZM97.7739 57V18.5H104.354L105.054 23.89H105.264C108.554 20.39 112.404 17.52 117.164 17.52C122.904 17.52 126.124 20.18 127.734 24.59C131.584 20.6 135.504 17.52 140.334 17.52C148.384 17.52 152.094 23.05 152.094 32.78V57H144.044V33.83C144.044 27.11 142.014 24.52 137.674 24.52C135.014 24.52 132.214 26.2 128.994 29.7V57H120.944V33.83C120.944 27.11 118.914 24.52 114.504 24.52C111.914 24.52 108.974 26.2 105.894 29.7V57H97.7739ZM181.799 57.98C178.299 57.98 174.379 56.16 171.159 53.01H170.879L170.179 57H163.809V1.28H171.929V15.98L171.579 22.56C174.939 19.69 178.999 17.52 183.129 17.52C192.859 17.52 198.389 25.29 198.389 37.12C198.389 50.35 190.479 57.98 181.799 57.98ZM180.259 51.26C185.789 51.26 190.059 46.29 190.059 37.26C190.059 29.21 187.399 24.24 180.959 24.24C178.019 24.24 175.079 25.85 171.929 28.93V47.76C174.799 50.35 177.879 51.26 180.259 51.26ZM223.933 57.98C213.433 57.98 205.173 50.49 205.173 37.82C205.173 25.29 213.783 17.52 222.743 17.52C232.893 17.52 238.423 24.87 238.423 35.79C238.423 37.4 238.283 38.94 238.073 39.92H213.083C213.713 47.27 218.333 51.61 224.983 51.61C228.413 51.61 231.283 50.56 234.153 48.74L236.953 53.92C233.383 56.3 228.973 57.98 223.933 57.98ZM212.943 34.32H231.423C231.423 27.67 228.483 23.89 222.883 23.89C218.053 23.89 213.783 27.6 212.943 34.32ZM247.481 57V18.5H254.061L254.761 25.43H254.971C257.701 20.46 261.761 17.52 265.891 17.52C267.781 17.52 268.971 17.8 270.161 18.36L268.761 25.36C267.431 24.94 266.451 24.73 264.841 24.73C261.761 24.73 257.981 26.97 255.601 33.06V57H247.481ZM271.138 40.27V34.25H289.618V40.27H271.138ZM299.587 57V5.48H308.967L318.347 31.59C319.607 34.95 320.657 38.45 321.847 41.95H322.127C323.387 38.45 324.367 34.95 325.487 31.59L334.797 5.48H344.177V57H336.687V31.59C336.687 26.9 337.317 20.32 337.737 15.63H337.457L333.257 27.53L324.297 52.1H319.257L310.297 27.53L306.167 15.63H305.887C306.307 20.32 306.937 26.9 306.937 31.59V57H299.587ZM372.463 57.98C362.873 57.98 354.333 50.56 354.333 37.82C354.333 24.94 362.873 17.52 372.463 17.52C381.983 17.52 390.593 24.94 390.593 37.82C390.593 50.56 381.983 57.98 372.463 57.98ZM372.463 51.33C378.483 51.33 382.333 45.94 382.333 37.82C382.333 29.63 378.483 24.24 372.463 24.24C366.373 24.24 362.663 29.63 362.663 37.82C362.663 45.94 366.373 51.33 372.463 51.33ZM413.359 57.98C403.699 57.98 397.539 50.56 397.539 37.82C397.539 25.29 405.449 17.52 413.989 17.52C418.399 17.52 421.269 19.2 424.349 21.86L423.999 15.49V1.28H432.119V57H425.469L424.839 52.73H424.629C421.689 55.67 417.699 57.98 413.359 57.98ZM415.319 51.26C418.469 51.26 421.269 49.79 423.999 46.57V27.81C421.199 25.22 418.469 24.24 415.599 24.24C410.209 24.24 405.869 29.42 405.869 37.68C405.869 46.43 409.299 51.26 415.319 51.26ZM444.151 57V18.5H452.271V57H444.151ZM448.211 11.29C445.201 11.29 443.241 9.4 443.241 6.46C443.241 3.59 445.201 1.7 448.211 1.7C451.151 1.7 453.251 3.59 453.251 6.46C453.251 9.4 451.151 11.29 448.211 11.29ZM465.647 57V13.67C465.647 5.83 469.287 0.299996 477.827 0.299996C480.487 0.299996 482.937 0.859997 484.687 1.56L483.077 7.72C481.677 7.02 480.207 6.74 478.807 6.74C475.447 6.74 473.697 8.98 473.697 13.67V57H465.647ZM460.397 24.94V18.92L466.067 18.5H481.537V24.94H460.397ZM490.336 73.1C488.376 73.1 486.836 72.82 485.506 72.33L487.046 66.03C487.746 66.31 488.866 66.59 489.846 66.59C493.976 66.59 496.496 63.51 497.896 59.38L498.666 56.72L483.406 18.5H491.666L498.736 38.31C499.926 41.74 501.046 45.59 502.306 49.23H502.656C503.566 45.66 504.616 41.88 505.596 38.31L511.826 18.5H519.666L505.526 59.38C502.516 67.57 498.456 73.1 490.336 73.1Z" fill="#E9B25F"/>
</svg>
