<svg width="170" height="170" viewBox="0 0 170 170" fill="none" xmlns="http://www.w3.org/2000/svg">
<circle cx="85" cy="85" r="85" fill="#E9B25F"/>
<path d="M128 64.8889C128 66.3704 127.482 67.6296 126.446 68.6667L86.2761 108.889L78.7303 116.444C77.6946 117.481 76.437 118 74.9574 118C73.4778 118 72.2202 117.481 71.1845 116.444L63.6387 108.889L43.5535 88.7778C42.5178 87.7407 42 86.4815 42 85C42 83.5185 42.5178 82.2593 43.5535 81.2222L51.0994 73.6667C52.1351 72.6296 53.3927 72.1111 54.8723 72.1111C56.3518 72.1111 57.6095 72.6296 58.6452 73.6667L74.9574 90.0556L111.355 53.5556C112.391 52.5185 113.648 52 115.128 52C116.607 52 117.865 52.5185 118.901 53.5556L126.446 61.1111C127.482 62.1481 128 63.4074 128 64.8889Z" fill="white"/>
</svg>
