<svg width="177" height="47" viewBox="0 0 177 47" fill="none" xmlns="http://www.w3.org/2000/svg">
<path d="M11.75 28.3H18.4V35.8H11.75V28.3ZM32 0.149999H38.65V46.45H32V0.149999ZM1.05 38.75L0.25 33.4C8.65 33.35 19.85 33.35 29.6 32.05L30.05 36.85C20 38.7 9.25 38.75 1.05 38.75ZM1.15 5.25H29V10.45H1.15V5.25ZM15.05 12.3C21.9 12.3 26.65 15.8 26.65 20.95C26.65 26.15 21.9 29.65 15.05 29.65C8.3 29.65 3.55 26.15 3.55 20.95C3.55 15.8 8.3 12.3 15.05 12.3ZM15.05 17.3C12.05 17.3 9.9 18.6 9.9 20.95C9.9 23.35 12.05 24.65 15.05 24.65C18.15 24.65 20.3 23.35 20.3 20.95C20.3 18.6 18.15 17.3 15.05 17.3ZM11.75 0.349997H18.4V8.25H11.75V0.349997ZM58.0461 23.9H64.6961V34.05H58.0461V23.9ZM78.3461 0.149999H84.9961V35.2H78.3461V0.149999ZM51.6461 40.35H85.9961V45.65H51.6461V40.35ZM51.6461 31.9H58.2961V41.75H51.6461V31.9ZM46.6461 25.9L45.8461 20.6C54.2961 20.6 65.5961 20.5 75.2961 19.25L75.6961 24C65.8461 25.65 54.9961 25.9 46.6461 25.9ZM69.5961 27.05H79.7961V31.6H69.5961V27.05ZM60.7461 1.75C67.4961 1.75 72.2461 5.1 72.2461 10C72.2461 14.95 67.4961 18.25 60.7461 18.25C53.9461 18.25 49.1961 14.95 49.1961 10C49.1961 5.1 53.9461 1.75 60.7461 1.75ZM60.7461 6.6C57.6461 6.6 55.4961 7.75 55.4961 10C55.4961 12.25 57.6461 13.4 60.7461 13.4C63.7961 13.4 65.9461 12.25 65.9461 10C65.9461 7.75 63.7961 6.6 60.7461 6.6ZM121.592 0.099997H128.292V46.4H121.592V0.099997ZM126.542 17.8H134.692V23.25H126.542V17.8ZM109.442 4.9H115.942C115.942 18.8 110.642 30.7 95.2422 38.45L91.5422 33.4C103.692 27.1 109.442 18.6 109.442 6.05V4.9ZM94.0922 4.9H112.842V10.25H94.0922V4.9ZM169.788 0.149999H176.488V25.05H169.788V0.149999ZM145.688 27.05H152.238V31.35H169.888V27.05H176.488V45.95H145.688V27.05ZM152.238 36.45V40.65H169.888V36.45H152.238ZM151.288 2.05C158.488 2.05 163.838 6.6 163.838 13C163.838 19.4 158.488 23.95 151.288 23.95C144.088 23.95 138.688 19.4 138.688 13C138.688 6.6 144.088 2.05 151.288 2.05ZM151.288 7.55C147.738 7.55 145.188 9.6 145.188 13C145.188 16.45 147.738 18.45 151.288 18.45C154.788 18.45 157.338 16.45 157.338 13C157.338 9.6 154.788 7.55 151.288 7.55Z" fill="#D68000"/>
</svg>
