<svg width="38" height="38" viewBox="0 0 38 38" fill="none" xmlns="http://www.w3.org/2000/svg">
<g id="&#240;&#159;&#166;&#134; icon &#34;truck&#34;">
<path id="Vector" d="M0 0H37.1609V37.1609H0V0Z" fill="white" fill-opacity="0.01"/>
<path id="Vector_2" d="M37.1609 0H0V37.1609H37.1609V0Z" fill="white" fill-opacity="0.01"/>
<g id="Group">
<path id="Vector_3" d="M9.29022 30.1932C11.0005 30.1932 12.387 28.8067 12.387 27.0964C12.387 25.3862 11.0005 23.9997 9.29022 23.9997C7.57994 23.9997 6.19348 25.3862 6.19348 27.0964C6.19348 28.8067 7.57994 30.1932 9.29022 30.1932Z" stroke="#868686" stroke-width="2" stroke-linejoin="round"/>
<path id="Vector_4" d="M27.0964 30.1932C28.8067 30.1932 30.1932 28.8067 30.1932 27.0964C30.1932 25.3862 28.8067 23.9997 27.0964 23.9997C25.3862 23.9997 23.9997 25.3862 23.9997 27.0964C23.9997 28.8067 25.3862 30.1932 27.0964 30.1932Z" stroke="#868686" stroke-width="2" stroke-linejoin="round"/>
<path id="Vector_5" d="M6.19345 27.0965H1.54834V8.51605H23.9997V27.0965H12.3869" stroke="#868686" stroke-width="2" stroke-linecap="round" stroke-linejoin="round"/>
<path id="Vector_6" d="M23.9997 27.0965V13.9353H30.6355L35.6125 20.5159V27.0965H30.8212" stroke="#868686" stroke-width="2" stroke-linecap="round" stroke-linejoin="round"/>
</g>
</g>
</svg>
