<svg width="97" height="97" viewBox="0 0 97 97" fill="none" xmlns="http://www.w3.org/2000/svg">
<path d="M12.125 48.5C12.125 28.4107 28.4107 12.125 48.5 12.125C68.5895 12.125 84.875 28.4107 84.875 48.5C84.875 68.5895 68.5895 84.875 48.5 84.875C28.4107 84.875 12.125 68.5895 12.125 48.5Z" fill="#2A4157" fill-opacity="0.24"/>
<path d="M48.5007 56.5833C57.4293 56.5833 64.6673 49.3453 64.6673 40.4167C64.6673 31.4881 57.4293 24.25 48.5007 24.25C39.572 24.25 32.334 31.4881 32.334 40.4167C32.334 49.3453 39.572 56.5833 48.5007 56.5833Z" fill="#949494"/>
<path fill-rule="evenodd" clip-rule="evenodd" d="M73.6419 73.7451C73.8772 74.1347 73.8052 74.6334 73.4746 74.9454C66.9591 81.1009 58.17 84.875 48.4991 84.875C38.8286 84.875 30.0394 81.1013 23.5239 74.9458C23.1933 74.6334 23.1216 74.1351 23.3567 73.7455C28.0619 65.9519 37.5549 60.625 48.4995 60.625C59.4436 60.625 68.9366 65.9515 73.6419 73.7451Z" fill="#949494"/>
</svg>
