<svg width="130" height="108" viewBox="0 0 130 108" fill="none" xmlns="http://www.w3.org/2000/svg">
<path d="M27.6199 77.5952C27.4426 77.3993 27.2318 77.2439 26.9997 77.1379C26.7675 77.0318 26.5186 76.9772 26.2671 76.9772C26.0157 76.9772 25.7668 77.0318 25.5346 77.1379C25.3025 77.2439 25.0917 77.3993 24.9144 77.5952L20.9649 81.9336L17.0154 77.5952C16.265 76.7709 15.0604 76.7709 14.31 77.5952C13.5596 78.4195 13.5596 79.7427 14.31 80.567L18.2595 84.9054L14.31 89.2438C14.0417 89.5377 13.8592 89.9126 13.7856 90.3208C13.7121 90.7291 13.7509 91.1521 13.897 91.5361C14.0432 91.92 14.2901 92.2474 14.6063 92.4766C14.9225 92.7058 15.2937 92.8264 15.6726 92.823C16.1663 92.823 16.6599 92.6278 17.0352 92.2156L20.9847 87.8772L24.9342 92.2156C25.3094 92.6278 25.8031 92.823 26.2968 92.823C26.6756 92.8264 27.0468 92.7058 27.363 92.4766C27.6792 92.2474 27.9261 91.92 28.0723 91.5361C28.2185 91.1521 28.2573 90.7291 28.1837 90.3208C28.1102 89.9126 27.9276 89.5377 27.6594 89.2438L23.7098 84.9054L27.6594 80.567C28.3703 79.7644 28.3703 78.4195 27.6199 77.5952Z" fill="#868686"/>
<path d="M125.077 20.8645H122.223V2.26795C122.223 1.07388 121.353 0.123047 120.26 0.123047H25.4995C19.2051 0.123047 14.0643 5.71749 14.0643 12.6166C14.0643 12.7935 14.0846 12.9483 14.0846 13.1252C14.0846 13.1473 14.0643 13.1915 14.0643 13.2136V63.055C5.88763 66.2392 -0.00201416 74.7746 -0.00201416 84.7915C-0.00201416 97.5283 9.46999 107.877 21.1278 107.877C28.0497 107.877 34.1822 104.206 38.0479 98.5676H122.345C124.25 98.5676 126.078 97.7405 127.425 96.2684C128.773 94.7962 129.53 92.7996 129.53 90.7176V25.7292C129.53 23.0536 127.526 20.8645 125.077 20.8645ZM125.603 68.9148H110.667C106.416 68.9148 102.955 65.1336 102.955 60.49C102.955 55.8464 106.416 52.0651 110.667 52.0651H125.603V68.9148ZM25.4995 4.41286H118.277V20.8203H25.4995C21.3505 20.8203 17.9908 17.1496 17.9908 12.6166C17.9908 8.10563 21.3707 4.41286 25.4995 4.41286ZM21.1278 103.609C11.6356 103.609 3.92442 95.1844 3.92442 84.8136C3.92442 74.4429 11.6356 66.0181 21.1278 66.0181C30.6201 66.0181 38.3313 74.4429 38.3313 84.8136C38.3313 95.1844 30.6201 103.609 21.1278 103.609ZM122.345 94.2999H40.3755C41.5898 91.4031 42.2577 88.1968 42.2577 84.8136C42.2577 72.0769 32.7857 61.7283 21.1278 61.7283C20.0552 61.7283 19.023 61.8388 18.011 62.0157V22.0365C20.0147 23.9602 22.6458 25.1322 25.5198 25.1322H118.904C118.965 25.1322 119.005 25.1764 119.066 25.1764H125.077C125.36 25.1764 125.603 25.4418 125.603 25.7513V47.8195H110.667C104.251 47.8195 99.029 53.5246 99.029 60.5342C99.029 67.5438 104.251 73.2488 110.667 73.2488H125.603V90.784C125.603 92.7078 124.146 94.2999 122.345 94.2999Z" fill="#868686"/>
<path d="M31.6297 15.4698H107.174C108.267 15.4698 109.137 14.5268 109.137 13.3426C109.137 12.1583 108.267 11.2153 107.174 11.2153H31.6297C30.5372 11.2153 29.6673 12.1583 29.6673 13.3426C29.6673 14.5049 30.5575 15.4698 31.6297 15.4698ZM108.186 60.2075C108.186 61.9233 108.815 63.5688 109.934 64.782C111.053 65.9953 112.571 66.6769 114.154 66.6769C115.737 66.6769 117.255 65.9953 118.374 64.782C119.494 63.5688 120.122 61.9233 120.122 60.2075C120.122 58.4917 119.494 56.8461 118.374 55.6329C117.255 54.4196 115.737 53.738 114.154 53.738C112.571 53.738 111.053 54.4196 109.934 55.6329C108.815 56.8461 108.186 58.4917 108.186 60.2075ZM114.154 57.9925C115.287 57.9925 116.197 58.9794 116.197 60.2075C116.197 61.4355 115.287 62.4224 114.154 62.4224C113.021 62.4224 112.111 61.4355 112.111 60.2075C112.111 59.0013 113.041 57.9925 114.154 57.9925Z" fill="#868686"/>
</svg>
