<svg width="23" height="16" viewBox="0 0 23 16" fill="none" xmlns="http://www.w3.org/2000/svg">
<path id="youtube" d="M22.1288 5.71731C22.1783 4.28596 21.8652 2.86533 21.2188 1.58731C20.7802 1.06291 20.1715 0.709018 19.4988 0.587308C16.7163 0.334834 13.9223 0.231352 11.1288 0.277308C8.34546 0.229267 5.56152 0.329408 2.78881 0.577308C2.24063 0.677025 1.73333 0.93415 1.32881 1.31731C0.428811 2.14731 0.328811 3.56731 0.228811 4.76731C0.0837231 6.92487 0.0837231 9.08974 0.228811 11.2473C0.257741 11.9227 0.358305 12.5931 0.528811 13.2473C0.649386 13.7524 0.893334 14.2197 1.23881 14.6073C1.64608 15.0108 2.1652 15.2825 2.72881 15.3873C4.88473 15.6534 7.05703 15.7637 9.22881 15.7173C12.7288 15.7673 15.7988 15.7173 19.4288 15.4373C20.0063 15.339 20.54 15.0669 20.9588 14.6573C21.2388 14.3772 21.4479 14.0344 21.5688 13.6573C21.9264 12.5599 22.1021 11.4114 22.0888 10.2573C22.1288 9.69731 22.1288 6.31731 22.1288 5.71731ZM8.86881 10.8573V4.66731L14.7888 7.77731C13.1288 8.69731 10.9388 9.73731 8.86881 10.8573Z" fill="#868686"/>
</svg>
